<svg id="svg" version="1.1" xmlns="http://www.w3.org/2000/svg" xmlns:xlink="http://www.w3.org/1999/xlink" width="151.5" height="40" viewBox="0 0 151.5"><g id="svgg"><path id="path0" d="M23.673 0.069c-0.225 0.029 -0.419 0.082 -0.431 0.118s-0.062 0.066 -0.111 0.066 -0.089 0.025 -0.089 0.055c0 0.03 -0.117 0.071 -0.261 0.09s-0.279 0.061 -0.3 0.094 -0.145 0.078 -0.275 0.102 -0.237 0.07 -0.237 0.104c0 0.033 -0.043 0.06 -0.095 0.06 -0.052 0 -0.095 0.031 -0.095 0.07 0 0.039 -0.039 0.055 -0.087 0.037 -0.368 -0.141 -0.324 0.759 0.056 1.128 0.156 0.152 0.284 0.32 0.284 0.373s0.042 0.097 0.094 0.097c0.052 0 0.176 0.085 0.275 0.189s0.213 0.189 0.253 0.189a0.072 0.072 0 0 1 0.072 0.072c0 0.094 0.248 0.307 0.357 0.307 0.047 0 0.085 0.042 0.085 0.094s0.17 0.261 0.379 0.464c0.208 0.203 0.379 0.416 0.379 0.474s0.044 0.104 0.099 0.104 0.324 0.227 0.599 0.505c0.275 0.278 0.529 0.505 0.564 0.505 0.035 0 0.064 0.042 0.064 0.095 0 0.052 0.042 0.095 0.095 0.095 0.052 0 0.095 0.028 0.095 0.062 0 0.109 0.213 0.317 0.325 0.317 0.059 0 0.126 0.057 0.148 0.126 0.058 0.182 0.438 0.568 0.56 0.568 0.056 0 0.103 0.042 0.103 0.095 0 0.052 0.041 0.095 0.09 0.095 0.05 0 0.109 0.059 0.132 0.131s0.058 0.115 0.077 0.096c0.046 -0.047 0.269 0.212 0.269 0.312 0 0.043 0.069 0.095 0.153 0.117 0.095 0.024 0.161 0.092 0.173 0.18 0.011 0.078 0.071 0.151 0.134 0.163 0.117 0.022 0.738 0.623 0.738 0.714s0.536 0.604 0.677 0.649c0.075 0.024 0.155 0.099 0.176 0.167s0.762 0.848 1.644 1.732 1.606 1.624 1.606 1.643c0 0.019 0.07 0.111 0.155 0.203 0.086 0.092 0.173 0.247 0.195 0.345 0.021 0.097 0.065 0.176 0.097 0.176s0.058 0.071 0.058 0.158 0.028 0.158 0.063 0.158c0.034 0 0.063 0.114 0.063 0.253s-0.028 0.253 -0.063 0.253 -0.063 0.085 -0.063 0.189 -0.025 0.189 -0.056 0.189 -0.074 0.071 -0.096 0.158 -0.067 0.158 -0.102 0.158 -0.062 0.039 -0.062 0.086c0 0.047 -0.069 0.138 -0.154 0.201s-0.17 0.181 -0.191 0.26c-0.021 0.085 -0.101 0.161 -0.194 0.184 -0.09 0.022 -0.172 0.099 -0.192 0.178 -0.019 0.076 -0.104 0.191 -0.189 0.255s-0.154 0.142 -0.154 0.174c0 0.08 -0.133 0.205 -0.274 0.259a0.276 0.276 0 0 0 -0.149 0.17c-0.018 0.069 -0.066 0.126 -0.106 0.126 -0.093 0 -0.265 0.199 -0.319 0.369 -0.023 0.071 -0.104 0.149 -0.18 0.173 -0.076 0.024 -0.201 0.111 -0.278 0.193 -0.077 0.082 -0.183 0.149 -0.237 0.149a0.097 0.097 0 0 0 -0.098 0.095c0 0.052 -0.028 0.095 -0.062 0.095 -0.074 0 -0.885 0.809 -0.885 0.883 0 0.028 -0.568 0.621 -1.262 1.317s-1.263 1.295 -1.263 1.332 -0.042 0.066 -0.095 0.066c-0.052 0 -0.095 0.031 -0.095 0.068 0 0.058 -0.156 0.246 -0.436 0.523 -0.566 0.562 -0.826 0.797 -0.884 0.797 -0.038 0 -0.069 0.027 -0.069 0.059 0 0.033 -0.064 0.079 -0.142 0.104a0.629 0.629 0 0 0 -0.242 0.16c-0.055 0.063 -0.219 0.134 -0.363 0.157s-0.263 0.064 -0.263 0.09 -0.156 0.067 -0.347 0.091 -0.347 0.07 -0.347 0.102c0 0.034 -0.467 0.059 -1.105 0.059 -0.608 0 -1.105 -0.025 -1.105 -0.056s-0.156 -0.075 -0.347 -0.099 -0.347 -0.07 -0.347 -0.102 -0.225 -0.059 -0.5 -0.059c-0.361 0 -0.527 -0.026 -0.595 -0.095 -0.052 -0.052 -0.122 -0.095 -0.156 -0.095s-0.077 -0.042 -0.097 -0.095c-0.039 -0.101 -0.425 -0.128 -0.79 -0.055 -0.266 0.053 -0.29 0.429 -0.039 0.617 0.087 0.065 0.158 0.172 0.158 0.236 0 0.065 0.043 0.117 0.095 0.117 0.053 0 0.144 0.057 0.203 0.126s0.152 0.128 0.205 0.129 0.153 0.075 0.223 0.164c0.07 0.089 0.163 0.194 0.207 0.234 0.307 0.277 0.456 0.439 0.456 0.495 0 0.036 0.039 0.05 0.087 0.031 0.09 -0.035 0.3 0.164 0.372 0.354 0.023 0.059 0.071 0.108 0.106 0.108s0.065 0.057 0.065 0.127c0 0.07 0.042 0.126 0.095 0.126 0.052 0 0.144 0.057 0.203 0.126s0.163 0.127 0.231 0.127 0.105 0.017 0.084 0.039c-0.054 0.054 0.089 0.187 0.258 0.241 0.077 0.024 0.139 0.07 0.139 0.103 0 0.032 0.044 0.059 0.097 0.059s0.112 0.04 0.131 0.089c0.019 0.048 0.131 0.107 0.25 0.129s0.217 0.068 0.217 0.101 0.042 0.06 0.095 0.06c0.052 0 0.095 0.028 0.095 0.062s0.114 0.081 0.253 0.103c0.139 0.022 0.252 0.065 0.252 0.095s0.114 0.073 0.253 0.095c0.139 0.022 0.253 0.065 0.253 0.095s0.042 0.055 0.095 0.055c0.052 0 0.095 0.024 0.095 0.054 0 0.03 0.19 0.072 0.422 0.094s0.451 0.068 0.486 0.104c0.08 0.08 2.731 0.089 2.78 0.01 0.019 -0.03 0.239 -0.069 0.49 -0.087 0.253 -0.018 0.467 -0.064 0.48 -0.103 0.013 -0.039 0.12 -0.07 0.239 -0.07s0.216 -0.027 0.216 -0.059 0.128 -0.078 0.284 -0.102c0.156 -0.023 0.284 -0.064 0.284 -0.091s0.114 -0.066 0.252 -0.088c0.139 -0.022 0.253 -0.068 0.253 -0.103s0.042 -0.062 0.095 -0.062c0.052 0 0.095 -0.028 0.095 -0.062s0.071 -0.08 0.158 -0.102 0.158 -0.063 0.158 -0.091c0 -0.028 0.085 -0.07 0.189 -0.093 0.104 -0.023 0.189 -0.068 0.189 -0.1 0 -0.032 0.041 -0.058 0.092 -0.058 0.05 0 0.163 -0.071 0.25 -0.158s0.188 -0.158 0.226 -0.158 0.084 -0.042 0.103 -0.092 0.092 -0.11 0.161 -0.132 0.11 -0.055 0.092 -0.073c-0.044 -0.044 0.122 -0.208 0.21 -0.208 0.07 0 1.392 -1.294 1.392 -1.362 0 -0.063 0.366 -0.405 0.433 -0.405 0.035 0 0.082 -0.059 0.105 -0.131 0.049 -0.154 0.469 -0.56 0.583 -0.562 0.044 -0.001 0.079 -0.032 0.079 -0.07 0 -0.077 0.189 -0.285 0.899 -0.99 0.095 -0.095 0.174 -0.201 0.174 -0.236 0 -0.035 0.071 -0.117 0.158 -0.183s0.158 -0.168 0.158 -0.229 0.043 -0.127 0.095 -0.147c0.052 -0.02 0.095 -0.069 0.095 -0.108 0 -0.092 0.848 -0.942 0.94 -0.942a0.07 0.07 0 0 0 0.07 -0.069c0 -0.037 0.156 -0.226 0.347 -0.419 0.191 -0.192 0.347 -0.389 0.347 -0.436s0.043 -0.086 0.095 -0.086a0.095 0.095 0 0 0 0.095 -0.095c0 -0.053 0.056 -0.095 0.127 -0.095 0.07 0 0.126 -0.042 0.126 -0.094s0.128 -0.214 0.284 -0.362c0.156 -0.147 0.284 -0.291 0.284 -0.32 0 -0.03 0.042 -0.096 0.095 -0.148 0.052 -0.052 0.095 -0.178 0.095 -0.28 0 -0.102 0.028 -0.185 0.062 -0.185s0.08 -0.071 0.102 -0.158c0.022 -0.087 0.065 -0.158 0.096 -0.158s0.056 -0.043 0.056 -0.095c0 -0.052 0.027 -0.095 0.06 -0.095s0.08 -0.106 0.104 -0.237 0.073 -0.256 0.109 -0.279 0.078 -0.215 0.093 -0.426c0.023 -0.314 0.048 -0.384 0.139 -0.384 0.125 0 0.187 -0.17 0.188 -0.521 0.001 -0.13 0.03 -0.237 0.064 -0.237 0.1 0 0.084 -2.379 -0.016 -2.425 -0.063 -0.03 -0.063 -0.044 0 -0.073 0.093 -0.044 0.107 -0.405 0.016 -0.405 -0.034 0 -0.063 -0.11 -0.063 -0.245 0 -0.141 -0.041 -0.278 -0.095 -0.323 -0.063 -0.052 -0.095 -0.193 -0.095 -0.418 0 -0.187 -0.028 -0.34 -0.063 -0.34s-0.063 -0.042 -0.063 -0.095c0 -0.052 -0.039 -0.095 -0.086 -0.095 -0.052 0 -0.103 -0.1 -0.127 -0.252 -0.022 -0.139 -0.068 -0.253 -0.103 -0.253s-0.062 -0.043 -0.062 -0.095 -0.028 -0.095 -0.063 -0.095 -0.063 -0.065 -0.063 -0.144c0 -0.079 -0.057 -0.192 -0.126 -0.252s-0.127 -0.176 -0.127 -0.259c0 -0.109 -0.044 -0.163 -0.158 -0.191 -0.11 -0.028 -0.158 -0.083 -0.158 -0.181a0.227 0.227 0 0 0 -0.141 -0.204c-0.077 -0.034 -0.166 -0.153 -0.198 -0.266 -0.031 -0.112 -0.111 -0.22 -0.175 -0.241 -0.065 -0.02 -0.118 -0.064 -0.118 -0.096s-0.042 -0.059 -0.093 -0.059c-0.052 0 -0.111 -0.071 -0.133 -0.158 -0.022 -0.089 -0.085 -0.158 -0.145 -0.158 -0.108 0 -0.323 -0.208 -0.323 -0.312 0 -0.031 -0.089 -0.142 -0.197 -0.244 -0.21 -0.199 -0.209 -0.198 -0.495 -0.486a6.818 6.818 0 0 0 -0.269 -0.259 3.788 3.788 0 0 1 -0.244 -0.252c-0.09 -0.101 -0.246 -0.257 -0.347 -0.347s-0.261 -0.246 -0.355 -0.347a8.333 8.333 0 0 0 -0.363 -0.361c-0.106 -0.098 -0.192 -0.204 -0.192 -0.237s-0.042 -0.059 -0.095 -0.059a0.093 0.093 0 0 1 -0.095 -0.091c0 -0.05 -0.05 -0.107 -0.111 -0.128s-0.181 -0.135 -0.268 -0.255 -0.197 -0.219 -0.244 -0.22c-0.047 -0.001 -0.31 -0.229 -0.584 -0.507 -0.274 -0.278 -0.523 -0.505 -0.553 -0.505 -0.095 0 -0.575 -0.5 -0.575 -0.6a0.095 0.095 0 0 0 -0.094 -0.095c-0.052 0 -0.201 -0.114 -0.331 -0.253 -0.131 -0.139 -0.263 -0.252 -0.294 -0.252 -0.031 0 -0.153 -0.1 -0.272 -0.221s-0.256 -0.221 -0.306 -0.221 -0.092 -0.054 -0.092 -0.12c0 -0.075 -0.059 -0.134 -0.158 -0.159 -0.087 -0.022 -0.158 -0.066 -0.158 -0.097s-0.08 -0.075 -0.177 -0.096c-0.097 -0.022 -0.215 -0.091 -0.261 -0.155 -0.05 -0.069 -0.132 -0.103 -0.202 -0.085 -0.065 0.017 -0.118 -0.001 -0.118 -0.04s-0.054 -0.07 -0.119 -0.07 -0.136 -0.043 -0.156 -0.095c-0.02 -0.052 -0.108 -0.095 -0.196 -0.095s-0.16 -0.025 -0.16 -0.055 -0.114 -0.073 -0.253 -0.095c-0.139 -0.022 -0.253 -0.069 -0.253 -0.103 0 -0.034 -0.085 -0.062 -0.189 -0.062s-0.189 -0.023 -0.189 -0.052c0 -0.17 -3.227 -0.269 -4.292 -0.132M12.435 0.189c0 0.035 -0.083 0.063 -0.184 0.063 -0.101 0 -0.195 0.034 -0.209 0.075 -0.015 0.044 -0.198 0.086 -0.447 0.102 -0.232 0.015 -0.422 0.049 -0.422 0.076s-0.071 0.067 -0.158 0.088 -0.158 0.068 -0.158 0.102c0 0.034 -0.071 0.062 -0.158 0.062s-0.158 0.027 -0.158 0.06 -0.105 0.08 -0.232 0.104c-0.128 0.024 -0.295 0.111 -0.37 0.192s-0.194 0.148 -0.264 0.148 -0.179 0.071 -0.245 0.158c-0.065 0.087 -0.152 0.158 -0.193 0.158s-0.16 0.085 -0.264 0.189 -0.215 0.189 -0.247 0.189 -0.159 0.114 -0.284 0.252c-0.125 0.139 -0.257 0.253 -0.295 0.253a0.068 0.068 0 0 0 -0.068 0.068c0 0.087 -0.16 0.248 -0.247 0.248 -0.037 0 -0.349 0.284 -0.693 0.631 -0.345 0.347 -0.645 0.631 -0.667 0.631 -0.05 0 -0.18 0.108 -0.4 0.332 -0.094 0.096 -0.334 0.34 -0.534 0.542 -0.2 0.202 -0.363 0.4 -0.363 0.441s-0.05 0.075 -0.111 0.077 -0.167 0.076 -0.237 0.165a2.651 2.651 0 0 1 -0.237 0.264c-0.061 0.056 -0.111 0.125 -0.111 0.154s-0.44 0.493 -0.978 1.031 -0.978 1.003 -0.978 1.034c0 0.03 -0.199 0.252 -0.442 0.493 -0.243 0.241 -0.442 0.467 -0.442 0.501s-0.069 0.114 -0.154 0.178 -0.17 0.181 -0.191 0.261c-0.02 0.08 -0.065 0.146 -0.099 0.146 -0.034 0 -0.062 0.044 -0.062 0.097a0.155 0.155 0 0 1 -0.095 0.133c-0.052 0.02 -0.095 0.09 -0.095 0.156 0 0.066 -0.026 0.119 -0.058 0.119 -0.032 0 -0.077 0.085 -0.1 0.189 -0.023 0.104 -0.066 0.189 -0.097 0.189s-0.075 0.107 -0.099 0.237 -0.07 0.254 -0.102 0.275c-0.033 0.021 -0.075 0.156 -0.094 0.3s-0.06 0.262 -0.09 0.262 -0.055 0.069 -0.055 0.152 -0.033 0.164 -0.072 0.177c-0.238 0.079 -0.233 4.377 0.005 4.456 0.037 0.012 0.067 0.062 0.067 0.112s0.026 0.089 0.057 0.089 0.077 0.142 0.1 0.316 0.069 0.315 0.101 0.315 0.057 0.072 0.057 0.16 0.042 0.176 0.092 0.195c0.051 0.02 0.11 0.097 0.132 0.172 0.222 0.763 0.553 0.722 1.453 -0.179 0.364 -0.365 0.69 -0.663 0.723 -0.663s0.061 -0.032 0.061 -0.072c0 -0.079 0.421 -0.497 0.501 -0.497 0.027 0 0.231 -0.184 0.453 -0.409l0.483 -0.489c0.044 -0.044 0.619 -0.616 1.278 -1.271 0.659 -0.655 1.198 -1.23 1.198 -1.278 0 -0.048 0.041 -0.088 0.092 -0.088 0.097 0 3.191 -3.059 3.191 -3.155 0 -0.031 0.383 -0.438 0.852 -0.904s0.852 -0.881 0.852 -0.92 0.031 -0.071 0.068 -0.071 0.208 -0.142 0.38 -0.315c0.172 -0.174 0.355 -0.316 0.408 -0.316a0.155 0.155 0 0 0 0.131 -0.095c0.02 -0.052 0.076 -0.095 0.124 -0.095 0.048 0 0.088 -0.042 0.088 -0.095 0 -0.072 0.077 -0.095 0.315 -0.095 0.173 0 0.315 -0.028 0.315 -0.063s0.156 -0.063 0.347 -0.063 0.347 0.025 0.347 0.056 0.071 0.074 0.158 0.096c0.087 0.022 0.158 0.067 0.158 0.102s0.042 0.062 0.095 0.062c0.052 0 0.095 0.025 0.095 0.056s0.071 0.074 0.158 0.096c0.087 0.022 0.158 0.067 0.158 0.102s0.044 0.062 0.097 0.062c0.053 0 0.112 0.041 0.132 0.092 0.02 0.051 0.088 0.109 0.153 0.13s0.137 0.098 0.16 0.172c0.049 0.155 0.867 0.995 0.969 0.995 0.037 0 0.068 0.03 0.068 0.066 0 0.036 0.156 0.226 0.347 0.422s0.347 0.378 0.347 0.405c0 0.027 1.165 1.213 2.588 2.636s2.588 2.613 2.588 2.643 0.096 0.14 0.212 0.244 0.233 0.251 0.257 0.327 0.071 0.139 0.103 0.139 0.059 0.059 0.059 0.132c0 0.133 0.175 0.497 0.273 0.569 0.028 0.021 0.068 0.163 0.088 0.315 0.02 0.153 0.067 0.297 0.103 0.321 0.085 0.055 0.079 1.187 -0.006 1.242 -0.034 0.022 -0.077 0.278 -0.097 0.569s-0.059 0.547 -0.088 0.568c-0.16 0.117 -0.213 0.409 -0.227 1.238l-0.015 0.884 0.384 0h0.384l0.445 -0.445c0.245 -0.245 0.464 -0.508 0.489 -0.584 0.024 -0.076 0.068 -0.138 0.098 -0.138 0.089 0 0.443 -0.381 0.443 -0.478 0 -0.05 0.042 -0.09 0.095 -0.09 0.052 0 0.095 -0.03 0.095 -0.067s0.095 -0.158 0.212 -0.268 0.232 -0.263 0.256 -0.34c0.024 -0.076 0.099 -0.156 0.167 -0.178 0.068 -0.022 0.123 -0.078 0.123 -0.125s0.038 -0.124 0.084 -0.17c0.046 -0.046 0.103 -0.203 0.127 -0.349 0.025 -0.156 0.108 -0.33 0.2 -0.423 0.087 -0.086 0.158 -0.201 0.158 -0.255s0.028 -0.098 0.063 -0.098 0.063 -0.069 0.063 -0.153 0.039 -0.193 0.087 -0.241c0.048 -0.048 0.107 -0.206 0.132 -0.352 0.025 -0.145 0.07 -0.264 0.102 -0.264s0.058 -0.111 0.058 -0.247c0 -0.142 0.034 -0.259 0.079 -0.273 0.061 -0.02 0.079 -0.419 0.079 -1.707 0 -1.26 -0.02 -1.7 -0.079 -1.759 -0.043 -0.044 -0.079 -0.201 -0.079 -0.35 0 -0.15 -0.028 -0.272 -0.063 -0.272 -0.034 0 -0.063 -0.083 -0.063 -0.185 0 -0.102 -0.041 -0.226 -0.092 -0.276s-0.111 -0.237 -0.134 -0.415c-0.023 -0.178 -0.067 -0.323 -0.098 -0.323s-0.055 -0.039 -0.055 -0.087c0 -0.048 -0.043 -0.122 -0.095 -0.166 -0.052 -0.043 -0.095 -0.143 -0.095 -0.222s-0.043 -0.16 -0.095 -0.18a0.155 0.155 0 0 1 -0.095 -0.133c0 -0.053 -0.028 -0.097 -0.063 -0.097s-0.063 -0.041 -0.063 -0.092c0 -0.051 -0.065 -0.157 -0.145 -0.237 -0.08 -0.08 -0.164 -0.195 -0.187 -0.255 -0.023 -0.061 -0.072 -0.11 -0.108 -0.11 -0.036 0 -0.065 -0.044 -0.065 -0.098 0 -0.054 -0.17 -0.265 -0.379 -0.47s-0.379 -0.416 -0.379 -0.47 -0.028 -0.098 -0.062 -0.098 -0.139 -0.085 -0.231 -0.189 -0.196 -0.189 -0.23 -0.189c-0.093 0 -0.676 -0.624 -0.676 -0.724 0 -0.048 -0.063 -0.109 -0.141 -0.133 -0.181 -0.057 -1.058 -0.943 -1.058 -1.068 0 -0.053 -0.056 -0.095 -0.127 -0.095 -0.071 0 -0.126 -0.042 -0.126 -0.097 0 -0.053 -0.042 -0.112 -0.092 -0.132s-0.109 -0.089 -0.13 -0.156a0.182 0.182 0 0 0 -0.162 -0.12c-0.068 0 -0.139 -0.04 -0.158 -0.089s-0.11 -0.108 -0.203 -0.131c-0.142 -0.036 -0.383 -0.241 -0.909 -0.777 -0.044 -0.045 -0.131 -0.13 -0.191 -0.188s-0.111 -0.128 -0.111 -0.155c0 -0.073 -0.326 -0.428 -0.394 -0.428 -0.048 0 -0.187 -0.116 -0.498 -0.419 -0.031 -0.03 -0.191 -0.197 -0.356 -0.37s-0.377 -0.35 -0.472 -0.393 -0.174 -0.106 -0.174 -0.142 -0.044 -0.064 -0.098 -0.064 -0.189 -0.097 -0.3 -0.215 -0.294 -0.234 -0.407 -0.258 -0.205 -0.066 -0.205 -0.094c0 -0.028 -0.071 -0.069 -0.158 -0.091 -0.087 -0.022 -0.158 -0.068 -0.158 -0.102 0 -0.034 -0.042 -0.062 -0.095 -0.062 -0.052 0 -0.095 -0.029 -0.095 -0.064 0 -0.037 -0.067 -0.047 -0.158 -0.025 -0.097 0.024 -0.158 0.013 -0.158 -0.03 0 -0.039 -0.04 -0.07 -0.089 -0.07s-0.1 -0.03 -0.112 -0.067c-0.012 -0.037 -0.15 -0.084 -0.305 -0.104 -0.155 -0.02 -0.305 -0.075 -0.333 -0.122 -0.028 -0.047 -0.12 -0.086 -0.205 -0.086s-0.155 -0.028 -0.155 -0.063c0 -0.034 -0.156 -0.063 -0.347 -0.063 -0.191 0 -0.347 -0.028 -0.347 -0.063 0 -0.04 -0.495 -0.063 -1.357 -0.063S12.435 0.149 12.435 0.189m67.465 6.426 -0.363 0.019v3.024h0.694c0.575 0 0.695 0.016 0.695 0.095 0 0.053 0.056 0.095 0.126 0.095 0.123 0 0.126 0.042 0.126 1.988 0 1.182 -0.023 1.988 -0.058 1.988 -0.09 0 -0.257 -0.187 -0.257 -0.289a0.093 0.093 0 0 0 -0.095 -0.09 0.095 0.095 0 0 1 -0.095 -0.095c0 -0.052 -0.028 -0.095 -0.063 -0.095 -0.034 0 -0.063 -0.03 -0.063 -0.068 0 -0.1 -0.166 -0.248 -0.28 -0.248a0.097 0.097 0 0 1 -0.099 -0.095c0 -0.054 -0.057 -0.095 -0.131 -0.095a0.371 0.371 0 0 1 -0.225 -0.095c-0.052 -0.052 -0.206 -0.095 -0.343 -0.095 -0.222 0 -0.248 -0.016 -0.248 -0.158 0 -0.154 -0.011 -0.158 -0.473 -0.158 -0.379 0 -0.473 -0.019 -0.473 -0.095s-0.095 -0.095 -0.476 -0.095c-0.364 0 -0.484 0.022 -0.512 0.095 -0.029 0.076 -0.167 0.095 -0.686 0.095 -0.64 0 -0.65 0.002 -0.689 0.158 -0.034 0.135 -0.076 0.158 -0.287 0.158 -0.136 0 -0.289 0.042 -0.341 0.095 -0.108 0.108 -0.23 0.125 -0.23 0.031 0 -0.035 -0.043 -0.063 -0.095 -0.063 -0.059 0 -0.095 0.06 -0.095 0.158 0 0.087 -0.028 0.158 -0.062 0.158s-0.08 0.071 -0.102 0.158c-0.025 0.099 -0.084 0.158 -0.159 0.158 -0.066 0 -0.119 0.042 -0.119 0.095 0 0.053 -0.056 0.095 -0.126 0.095 -0.07 0 -0.127 0.03 -0.127 0.067s-0.095 0.158 -0.212 0.268 -0.231 0.262 -0.255 0.337 -0.084 0.152 -0.135 0.172c-0.06 0.023 -0.092 0.125 -0.092 0.29 0 0.229 -0.016 0.255 -0.158 0.255 -0.133 0 -0.158 0.029 -0.158 0.189 0 0.104 -0.025 0.189 -0.055 0.189s-0.073 0.114 -0.095 0.252 -0.068 0.253 -0.103 0.253 -0.062 0.114 -0.062 0.253c0 0.182 -0.026 0.252 -0.095 0.252 -0.073 0 -0.095 0.081 -0.095 0.347s-0.022 0.347 -0.095 0.347c-0.077 0 -0.095 0.104 -0.095 0.561 0 0.441 -0.02 0.569 -0.095 0.598 -0.081 0.031 -0.095 0.301 -0.095 1.901 0 1.615 0.013 1.864 0.095 1.864 0.078 0 0.095 0.118 0.095 0.687 0 0.533 0.021 0.704 0.095 0.765 0.063 0.052 0.095 0.193 0.095 0.418 0 0.259 0.022 0.339 0.095 0.339 0.073 0 0.095 0.081 0.095 0.347 0 0.266 0.022 0.347 0.095 0.347q0.095 0 0.095 0.189c0 0.104 0.024 0.189 0.053 0.189s0.086 0.071 0.125 0.158 0.122 0.16 0.184 0.163c0.066 0.003 0.08 0.018 0.033 0.037 -0.093 0.037 -0.107 0.211 -0.017 0.211 0.034 0 0.08 0.071 0.102 0.158s0.079 0.158 0.128 0.158c0.052 0 0.088 0.065 0.088 0.158 0 0.089 0.036 0.158 0.084 0.158 0.046 0 0.122 0.071 0.168 0.158 0.047 0.087 0.108 0.158 0.137 0.158s0.052 0.043 0.052 0.095c0 0.052 0.043 0.095 0.095 0.095a0.095 0.095 0 0 1 0.095 0.095c0 0.059 0.06 0.095 0.158 0.095s0.158 0.036 0.158 0.095c0 0.052 0.039 0.095 0.088 0.095 0.048 0 0.106 0.071 0.127 0.158 0.029 0.115 0.082 0.158 0.196 0.158 0.097 0 0.157 0.036 0.157 0.095s0.059 0.095 0.158 0.095c0.098 0 0.158 0.036 0.158 0.095 0 0.073 0.081 0.095 0.347 0.095 0.328 0 0.347 0.008 0.347 0.158v0.158h2.588v-0.158c0 -0.147 0.021 -0.158 0.315 -0.158 0.239 0 0.315 -0.023 0.315 -0.095q0 -0.095 0.189 -0.095t0.189 -0.095c0 -0.059 0.059 -0.095 0.157 -0.095 0.114 0 0.167 -0.043 0.196 -0.158 0.028 -0.113 0.082 -0.158 0.191 -0.158 0.092 0 0.151 -0.037 0.151 -0.095 0 -0.052 0.028 -0.095 0.063 -0.095s0.063 -0.038 0.063 -0.085c0 -0.121 0.29 -0.42 0.407 -0.42 0.083 0 0.098 0.116 0.098 0.758v0.758h0.189c0.104 0 0.189 -0.028 0.189 -0.063 0 -0.041 0.705 -0.063 1.988 -0.063 1.726 0 1.988 -0.012 1.988 -0.095a0.095 0.095 0 0 1 0.095 -0.095c0.081 0 0.095 -0.193 0.095 -1.357s-0.013 -1.357 -0.095 -1.357a0.095 0.095 0 0 1 -0.095 -0.095c0 -0.077 -0.102 -0.095 -0.536 -0.095s-0.537 -0.018 -0.537 -0.095c0 -0.052 -0.028 -0.095 -0.063 -0.095 -0.079 0 -0.087 -2.379 -0.008 -2.409 0.094 -0.036 0.117 -5.939 0.023 -5.971 -0.06 -0.02 -0.079 -0.352 -0.079 -1.373s0.019 -1.353 0.079 -1.373c0.178 -0.059 0.145 -6.171 -0.033 -6.171 -0.053 0 -0.072 -0.087 -0.06 -0.268 0.031 -0.451 0.124 -0.431 -2.075 -0.445 -1.09 -0.007 -2.146 -0.004 -2.346 0.007m-32.178 0.839c0 0.12 -0.03 0.13 -0.319 0.11 -0.286 -0.02 -0.322 -0.008 -0.354 0.12 -0.03 0.12 -0.078 0.142 -0.313 0.142 -0.205 0 -0.277 0.025 -0.277 0.095 0 0.068 -0.07 0.095 -0.253 0.095 -0.211 0 -0.253 0.021 -0.253 0.126 0 0.098 -0.042 0.126 -0.189 0.126s-0.189 0.028 -0.189 0.127c0 0.092 -0.042 0.126 -0.158 0.126 -0.098 0 -0.158 0.036 -0.158 0.095q0 0.095 -0.189 0.095c-0.161 0 -0.189 0.024 -0.189 0.162 0 0.129 -0.024 0.155 -0.117 0.125 -0.193 -0.061 -0.319 0.028 -0.361 0.256 -0.029 0.154 -0.074 0.215 -0.159 0.215 -0.066 0 -0.119 0.043 -0.119 0.095a0.095 0.095 0 0 1 -0.095 0.095c-0.052 0 -0.095 0.053 -0.095 0.117 0 0.134 -0.201 0.388 -0.307 0.388 -0.039 0 -0.072 0.073 -0.072 0.162 0 0.092 -0.027 0.145 -0.063 0.122 -0.034 -0.021 -0.063 0.02 -0.063 0.091 0 0.073 -0.041 0.13 -0.095 0.13a0.096 0.096 0 0 0 -0.095 0.097c0 0.053 -0.043 0.113 -0.095 0.133 -0.052 0.02 -0.095 0.093 -0.095 0.162 0 0.086 -0.03 0.115 -0.095 0.09 -0.064 -0.025 -0.095 0.003 -0.095 0.088 0 0.068 -0.043 0.124 -0.095 0.124 -0.069 0 -0.095 0.07 -0.095 0.253 0 0.139 -0.028 0.252 -0.063 0.252s-0.063 0.085 -0.063 0.189q0 0.189 -0.095 0.189a0.095 0.095 0 0 0 -0.095 0.095c0 0.052 -0.028 0.095 -0.063 0.095s-0.063 0.043 -0.063 0.095c0 0.052 0.028 0.095 0.063 0.095 0.034 0 0.063 0.028 0.063 0.063s-0.042 0.063 -0.095 0.063q-0.095 0 -0.095 0.189t-0.095 0.189c-0.076 0 -0.095 0.098 -0.095 0.505 0 0.469 -0.009 0.505 -0.131 0.505 -0.118 0 -0.129 0.033 -0.114 0.331 0.014 0.27 -0.002 0.335 -0.09 0.351 -0.155 0.03 -0.167 5.264 -0.013 5.418 0.069 0.069 0.095 0.238 0.095 0.627 0 0.49 0.01 0.532 0.126 0.532 0.112 0 0.126 0.042 0.126 0.379 0 0.295 0.021 0.379 0.095 0.379 0.072 0 0.095 0.077 0.095 0.315 0 0.239 0.023 0.316 0.095 0.316 0.052 0 0.095 0.028 0.095 0.063a0.063 0.063 0 0 1 -0.063 0.063c-0.035 0 -0.063 0.042 -0.063 0.095 0 0.052 0.028 0.095 0.063 0.095 0.034 0 0.063 0.044 0.063 0.097a0.155 0.155 0 0 0 0.095 0.133c0.053 0.02 0.095 0.114 0.095 0.212s0.042 0.192 0.095 0.212c0.052 0.02 0.095 0.094 0.095 0.164 0 0.071 0.028 0.128 0.063 0.128s0.063 0.085 0.063 0.189q0 0.189 0.095 0.189c0.052 0 0.095 0.039 0.095 0.088s0.042 0.105 0.095 0.124c0.052 0.02 0.095 0.094 0.095 0.165 0 0.072 0.041 0.128 0.095 0.128 0.052 0 0.095 0.03 0.095 0.067s0.097 0.159 0.217 0.272c0.119 0.112 0.236 0.281 0.259 0.375s0.083 0.17 0.131 0.17c0.048 0 0.088 0.059 0.088 0.132 0 0.079 0.051 0.145 0.126 0.165 0.07 0.018 0.127 0.072 0.127 0.12 0 0.048 0.057 0.087 0.126 0.087s0.126 0.027 0.126 0.059c0 0.033 0.057 0.077 0.127 0.099 0.081 0.025 0.126 0.095 0.126 0.194 0 0.128 0.031 0.153 0.189 0.153q0.189 0 0.189 0.095c0 0.058 0.059 0.095 0.151 0.095 0.083 0 0.167 0.043 0.187 0.095 0.02 0.052 0.108 0.095 0.196 0.095 0.128 0 0.16 0.031 0.16 0.158 0 0.142 0.025 0.158 0.253 0.158 0.182 0 0.253 0.026 0.253 0.095 0 0.07 0.073 0.095 0.284 0.095 0.21 0 0.284 0.024 0.284 0.095 0 0.076 0.095 0.095 0.478 0.095 0.468 0 0.658 0.072 0.658 0.248 0 0.047 0.589 0.068 1.894 0.068h1.894v-0.158c0 -0.149 0.019 -0.158 0.342 -0.158 0.22 0 0.376 -0.034 0.437 -0.095 0.053 -0.053 0.207 -0.095 0.347 -0.095 0.14 0 0.295 -0.042 0.347 -0.095a0.371 0.371 0 0 1 0.23 -0.095c0.144 0 0.315 -0.135 0.315 -0.248 0 -0.037 0.057 -0.068 0.126 -0.068 0.07 0 0.127 -0.042 0.127 -0.095 0 -0.066 0.067 -0.095 0.221 -0.095s0.221 -0.028 0.221 -0.095c0 -0.052 0.045 -0.095 0.099 -0.095 0.114 0 0.28 -0.147 0.28 -0.248 0 -0.037 0.071 -0.068 0.158 -0.068 0.098 0 0.158 -0.036 0.158 -0.095q0 -0.095 0.189 -0.095h0.189v-2.999c0 -1.957 0.022 -2.998 0.063 -2.998 0.035 0 0.063 -0.043 0.063 -0.095 0 -0.077 0.099 -0.095 0.509 -0.095 0.731 0 0.696 0.084 0.675 -1.576l-0.017 -1.393 -3.93 -0.015 -3.93 -0.015v1.399c0 0.77 0.017 1.444 0.038 1.499 0.034 0.087 0.229 0.1 1.539 0.1h1.501l0.038 0.142c0.049 0.183 0.05 3.191 0.001 3.374 -0.027 0.099 -0.094 0.144 -0.236 0.158 -0.151 0.014 -0.203 0.053 -0.219 0.161 -0.018 0.127 -0.055 0.142 -0.363 0.142 -0.262 0 -0.343 0.022 -0.343 0.095 0 0.08 -0.151 0.095 -0.978 0.095 -0.93 0 -0.979 -0.006 -0.979 -0.124 0 -0.114 -0.031 -0.121 -0.41 -0.086l-0.41 0.038v-0.167c0 -0.136 -0.03 -0.167 -0.158 -0.167 -0.098 0 -0.158 -0.036 -0.158 -0.095 0 -0.07 -0.073 -0.095 -0.284 -0.095 -0.21 0 -0.284 -0.024 -0.284 -0.095a0.093 0.093 0 0 0 -0.09 -0.095c-0.05 0 -0.099 -0.062 -0.111 -0.138 -0.014 -0.095 -0.083 -0.155 -0.225 -0.191 -0.142 -0.037 -0.216 -0.1 -0.244 -0.209 -0.023 -0.093 -0.084 -0.156 -0.152 -0.156 -0.07 0 -0.129 -0.065 -0.155 -0.17 -0.023 -0.094 -0.14 -0.262 -0.259 -0.375s-0.217 -0.235 -0.217 -0.272c0 -0.037 -0.042 -0.067 -0.095 -0.067a0.095 0.095 0 0 1 -0.095 -0.095c0 -0.052 0.028 -0.095 0.063 -0.095 0.034 0 0.063 -0.071 0.063 -0.158 0 -0.098 -0.036 -0.158 -0.095 -0.158 -0.059 0 -0.095 -0.059 -0.095 -0.158 0 -0.098 -0.036 -0.158 -0.095 -0.158 -0.069 0 -0.095 -0.072 -0.095 -0.27s-0.034 -0.295 -0.126 -0.361c-0.074 -0.053 -0.126 -0.163 -0.126 -0.266 0 -0.106 -0.034 -0.175 -0.086 -0.175 -0.068 0 -0.095 -0.303 -0.131 -1.499 -0.031 -1.031 -0.069 -1.513 -0.12 -1.546q-0.072 -0.047 0.037 -0.048c0.097 -0.001 0.111 -0.072 0.111 -0.601 0 -0.491 0.017 -0.6 0.095 -0.6 0.072 0 0.095 -0.08 0.095 -0.34 0 -0.287 0.02 -0.345 0.126 -0.373 0.097 -0.025 0.126 -0.086 0.126 -0.26 0 -0.15 0.03 -0.227 0.087 -0.227 0.056 0 0.098 -0.103 0.119 -0.294 0.02 -0.176 0.073 -0.316 0.134 -0.35a0.223 0.223 0 0 0 0.102 -0.176c0 -0.066 0.057 -0.137 0.126 -0.159 0.094 -0.03 0.127 -0.095 0.127 -0.257 0 -0.132 0.029 -0.21 0.073 -0.201 0.041 0.009 0.102 -0.077 0.136 -0.189 0.041 -0.136 0.101 -0.205 0.179 -0.205 0.064 0 0.117 -0.042 0.117 -0.095 0 -0.052 0.045 -0.095 0.099 -0.095 0.113 0 0.28 -0.147 0.28 -0.248 0 -0.037 0.042 -0.068 0.095 -0.068a0.095 0.095 0 0 0 0.095 -0.095c0 -0.059 0.059 -0.095 0.158 -0.095 0.098 0 0.158 -0.036 0.158 -0.095q0 -0.095 0.189 -0.095c0.16 0 0.189 -0.025 0.189 -0.158 0 -0.149 0.019 -0.158 0.347 -0.158 0.267 0 0.347 -0.022 0.347 -0.095 0 -0.081 0.161 -0.095 1.073 -0.095s1.073 0.014 1.073 0.095c0 0.076 0.095 0.095 0.473 0.095h0.473v0.252c0 0.203 0.023 0.253 0.117 0.253 0.109 0 0.119 0.095 0.153 1.42 0.047 1.8 -0.171 1.61 1.841 1.61h1.614v-0.315c0 -0.174 -0.028 -0.316 -0.063 -0.316 -0.041 0 -0.063 -1.01 -0.063 -2.903 0 -2.43 -0.014 -2.904 -0.087 -2.904 -0.048 0 -0.102 -0.057 -0.12 -0.126 -0.028 -0.107 -0.086 -0.127 -0.379 -0.127s-0.351 -0.019 -0.379 -0.126c-0.025 -0.097 -0.086 -0.126 -0.26 -0.126 -0.179 0 -0.227 -0.025 -0.227 -0.117 0 -0.106 -0.044 -0.114 -0.472 -0.086 -0.448 0.029 -0.475 0.023 -0.526 -0.114 -0.05 -0.135 -0.084 -0.144 -0.537 -0.131 -0.452 0.013 -0.484 0.006 -0.484 -0.116 0 -0.129 -0.02 -0.131 -2.115 -0.131 -2.105 0 -2.115 0.001 -2.115 0.133m74.74 1.935v1.846h0.695c0.575 0 0.694 0.016 0.694 0.095 0 0.052 0.042 0.095 0.095 0.095 0.084 0 0.095 0.758 0.095 6.439v6.439h-0.158c-0.117 0 -0.158 0.033 -0.158 0.131 0 0.116 -0.011 0.12 -0.095 0.036 -0.052 -0.052 -0.095 -0.128 -0.095 -0.17 0 -0.047 -0.053 -0.061 -0.142 -0.037 -0.078 0.021 -0.32 0.038 -0.537 0.039l-0.395 0.001v1.799c0 1.557 0.013 1.799 0.095 1.799 0.052 0 0.095 0.028 0.095 0.063s0.085 0.063 0.189 0.063 0.189 -0.028 0.189 -0.063c0 -0.041 0.945 -0.063 2.707 -0.063h2.707l0.038 -0.142c0.129 -0.482 0.024 -2.951 -0.126 -2.951 -0.059 0 -0.086 -0.081 -0.086 -0.253v-0.252h-0.311c-0.273 0 -0.315 0.017 -0.339 0.142l-0.027 0.142 -0.009 -0.142c-0.006 -0.101 -0.05 -0.144 -0.151 -0.147 -0.078 -0.003 -0.106 -0.019 -0.063 -0.037 0.1 -0.041 0.116 -3.304 0.016 -3.304 -0.034 0 -0.063 -0.057 -0.063 -0.126q0 -0.126 0.126 -0.126c0.07 0 0.126 -0.042 0.126 -0.095 0 -0.081 0.175 -0.095 1.2 -0.095s1.2 0.014 1.2 0.095c0 0.052 0.042 0.095 0.095 0.095 0.068 0 0.095 0.07 0.095 0.252s0.026 0.253 0.095 0.253a0.095 0.095 0 0 1 0.095 0.095c0 0.052 0.028 0.095 0.063 0.095s0.063 0.114 0.063 0.253c0 0.182 0.026 0.252 0.095 0.252 0.066 0 0.095 0.067 0.095 0.223 0 0.14 0.035 0.236 0.095 0.259 0.058 0.022 0.095 0.118 0.095 0.249 0 0.162 0.022 0.203 0.095 0.176 0.075 -0.029 0.095 0.018 0.095 0.219 0 0.141 0.028 0.273 0.063 0.294 0.034 0.022 0.063 0.123 0.063 0.225 0 0.123 0.032 0.186 0.095 0.186q0.095 0.001 0.095 0.185c0 0.102 0.043 0.227 0.095 0.28 0.052 0.052 0.095 0.196 0.095 0.32 0 0.158 0.028 0.225 0.095 0.225q0.095 0 0.095 0.189c0 0.104 0.028 0.189 0.063 0.189s0.063 0.083 0.063 0.185c0 0.102 0.042 0.228 0.095 0.28 0.052 0.052 0.095 0.125 0.095 0.162s0.042 0.068 0.095 0.068c0.068 0 0.095 0.07 0.095 0.252s0.026 0.253 0.095 0.253c0.068 0 0.095 0.07 0.095 0.253 0 0.182 0.026 0.252 0.095 0.252q0.095 0 0.095 0.189c0 0.104 0.028 0.189 0.063 0.189s0.063 0.114 0.063 0.253c0 0.227 0.016 0.253 0.158 0.253 0.098 0 0.158 0.036 0.158 0.095 0 0.052 0.043 0.095 0.095 0.095 0.052 0 0.095 0.028 0.095 0.063 0 0.037 0.221 0.063 0.537 0.063s0.537 -0.026 0.537 -0.063c0 -0.112 2.262 -0.082 2.376 0.032 0.323 0.323 0.338 0.242 0.338 -1.799v-1.894h-0.689c-0.49 0 -0.7 0.023 -0.726 0.079 -0.03 0.063 -0.044 0.063 -0.073 0 -0.02 -0.044 -0.091 -0.079 -0.158 -0.079s-0.121 -0.043 -0.121 -0.095c0 -0.052 -0.028 -0.095 -0.063 -0.095s-0.063 -0.073 -0.063 -0.162 -0.042 -0.205 -0.095 -0.257c-0.052 -0.052 -0.095 -0.206 -0.095 -0.343 0 -0.178 -0.027 -0.248 -0.095 -0.248q-0.095 0 -0.095 -0.189c0 -0.144 -0.029 -0.189 -0.119 -0.189 -0.116 0 -0.194 -0.158 -0.196 -0.399 -0.001 -0.127 -0.143 -0.295 -0.249 -0.295 -0.037 0 -0.067 -0.028 -0.067 -0.063s0.028 -0.063 0.063 -0.063c0.096 0 0.076 -0.186 -0.031 -0.293 -0.052 -0.052 -0.095 -0.178 -0.095 -0.28 0 -0.143 -0.029 -0.185 -0.126 -0.185 -0.105 0 -0.127 -0.042 -0.127 -0.252 0 -0.172 -0.028 -0.253 -0.086 -0.253 -0.086 0 -0.164 -0.304 -0.165 -0.647 -0.001 -0.132 0.03 -0.174 0.125 -0.174 0.07 0 0.126 -0.042 0.126 -0.095 0 -0.059 0.06 -0.095 0.158 -0.095s0.158 -0.036 0.158 -0.095c0 -0.052 0.028 -0.095 0.062 -0.095s0.08 -0.071 0.102 -0.158c0.033 -0.13 0.078 -0.158 0.254 -0.158 0.148 0 0.214 -0.029 0.214 -0.095a0.095 0.095 0 0 1 0.095 -0.095c0.058 0 0.095 -0.059 0.095 -0.153 0 -0.086 0.066 -0.205 0.15 -0.27 0.082 -0.065 0.169 -0.18 0.194 -0.257 0.024 -0.077 0.071 -0.14 0.103 -0.14s0.059 -0.042 0.059 -0.095a0.095 0.095 0 0 1 0.095 -0.095q0.094 -0.001 0.095 -0.185c0 -0.102 0.042 -0.227 0.095 -0.28 0.052 -0.052 0.095 -0.168 0.095 -0.257 0 -0.102 0.035 -0.162 0.095 -0.162 0.068 0 0.095 -0.07 0.095 -0.253 0 -0.188 0.025 -0.252 0.1 -0.252 0.084 0 0.097 -0.072 0.079 -0.442 -0.016 -0.323 0 -0.442 0.058 -0.442 0.061 0 0.079 -0.332 0.079 -1.452s-0.018 -1.452 -0.079 -1.452c-0.059 0 -0.073 -0.144 -0.057 -0.568 0.018 -0.475 0.005 -0.574 -0.079 -0.606 -0.068 -0.026 -0.101 -0.117 -0.101 -0.28 0 -0.133 -0.043 -0.284 -0.095 -0.336 -0.052 -0.052 -0.095 -0.122 -0.095 -0.155 0 -0.034 -0.043 -0.077 -0.095 -0.097 -0.062 -0.024 -0.095 -0.123 -0.095 -0.291 0 -0.184 -0.026 -0.255 -0.095 -0.255 -0.053 0 -0.095 -0.056 -0.095 -0.126s-0.042 -0.126 -0.095 -0.126a0.093 0.093 0 0 1 -0.095 -0.091c0 -0.05 -0.056 -0.108 -0.124 -0.13 -0.078 -0.025 -0.139 -0.119 -0.165 -0.256 -0.022 -0.119 -0.066 -0.201 -0.097 -0.182s-0.076 -0.017 -0.099 -0.08c-0.055 -0.149 -0.144 -0.207 -0.32 -0.208 -0.1 -0.001 -0.142 -0.039 -0.142 -0.127q0 -0.126 -0.127 -0.126c-0.07 0 -0.126 -0.042 -0.126 -0.095 0 -0.052 -0.055 -0.095 -0.121 -0.095 -0.188 0 -0.321 -0.068 -0.321 -0.164 0 -0.056 -0.069 -0.088 -0.189 -0.088 -0.147 0 -0.189 -0.028 -0.189 -0.126 0 -0.069 -0.021 -0.123 -0.047 -0.119 -0.26 0.041 -0.647 -0.02 -0.647 -0.102 0 -0.077 -0.098 -0.095 -0.505 -0.095 -0.317 0 -0.505 -0.025 -0.505 -0.068 0 -0.211 -0.117 -0.216 -4.624 -0.216h-4.466zm-8.101 -1.52c-0.023 0.023 -0.042 1.017 -0.042 2.209v2.167h-1.578v0.158c0 0.098 -0.036 0.158 -0.095 0.158a0.095 0.095 0 0 0 -0.095 0.095c0 0.052 -0.028 0.095 -0.063 0.095 -0.04 0 -0.063 0.452 -0.063 1.231s0.023 1.231 0.063 1.231c0.035 0 0.063 0.042 0.063 0.095 0 0.052 0.042 0.095 0.095 0.095 0.053 0 0.095 0.056 0.095 0.126 0 0.109 0.042 0.126 0.311 0.126 0.256 0 0.319 -0.022 0.351 -0.126 0.06 -0.189 0.726 -0.189 0.726 0 0 0.07 0.042 0.126 0.095 0.126 0.083 0 0.095 0.459 0.095 3.752 0 2.433 0.022 3.766 0.063 3.791 0.035 0.022 0.063 0.306 0.063 0.635 0 0.487 0.017 0.596 0.095 0.596 0.075 0 0.095 0.088 0.095 0.415 0 0.285 0.03 0.445 0.095 0.509 0.056 0.056 0.095 0.21 0.095 0.375 0 0.237 0.019 0.28 0.126 0.28 0.092 0 0.126 0.042 0.126 0.158 0 0.098 0.036 0.158 0.095 0.158 0.069 0 0.095 0.07 0.095 0.253 0 0.182 0.027 0.252 0.095 0.252 0.052 0 0.095 0.032 0.095 0.072 0 0.039 0.071 0.137 0.158 0.218s0.158 0.176 0.158 0.212 0.042 0.066 0.093 0.066c0.052 0 0.111 0.071 0.133 0.158 0.028 0.113 0.082 0.158 0.191 0.158 0.092 0 0.151 0.037 0.151 0.095 0 0.068 0.07 0.095 0.252 0.095 0.227 0 0.253 0.016 0.253 0.158 0 0.158 0.002 0.158 0.6 0.158 0.358 0 0.6 0.025 0.6 0.063 0 0.082 0.296 0.082 0.347 0 0.023 -0.036 0.359 -0.063 0.793 -0.063 0.494 0 0.754 -0.023 0.754 -0.068 0 -0.153 0.191 -0.248 0.5 -0.248 0.242 0 0.32 -0.023 0.32 -0.095 0 -0.069 0.07 -0.095 0.253 -0.095h0.253v-0.852c0 -0.526 -0.024 -0.852 -0.063 -0.852s-0.063 -0.326 -0.063 -0.852c0 -0.715 -0.015 -0.852 -0.095 -0.852 -0.059 0 -0.095 -0.06 -0.095 -0.162 0 -0.208 -0.136 -0.343 -0.347 -0.343 -0.175 0 -0.347 0.127 -0.347 0.256 0 0.055 -0.122 0.067 -0.442 0.045 -0.4 -0.029 -0.442 -0.02 -0.442 0.086 0 0.099 -0.05 0.118 -0.316 0.118 -0.238 0 -0.315 -0.023 -0.315 -0.095 0 -0.056 -0.058 -0.095 -0.144 -0.095 -0.169 0 -0.361 -0.201 -0.361 -0.38 0 -0.07 -0.042 -0.126 -0.095 -0.126a0.095 0.095 0 0 1 -0.095 -0.095c0 -0.052 -0.046 -0.095 -0.103 -0.095 -0.081 0 -0.087 -0.018 -0.027 -0.09 0.132 -0.159 0.058 -0.569 -0.107 -0.593l-0.142 -0.02v-3.521c0 -3.347 0.006 -3.528 0.118 -3.657 0.13 -0.15 2.155 -0.219 2.155 -0.073 0 0.035 0.071 0.063 0.158 0.063 0.087 0 0.158 -0.028 0.158 -0.063 0 -0.034 0.111 -0.063 0.247 -0.063 0.471 0 0.447 0.078 0.447 -1.459v-1.382h-0.6c-0.358 0 -0.6 -0.026 -0.6 -0.063 0 -0.035 -0.068 -0.063 -0.151 -0.063s-0.167 -0.042 -0.187 -0.095c-0.058 -0.15 -0.333 -0.112 -0.471 0.063 -0.116 0.148 -0.381 0.233 -0.295 0.095 0.022 -0.035 -0.019 -0.063 -0.091 -0.063s-0.13 -0.028 -0.13 -0.063 -0.057 -0.063 -0.127 -0.063c-0.069 0 -0.126 0.028 -0.126 0.063a0.063 0.063 0 0 1 -0.063 0.063c-0.034 0 -0.063 -0.042 -0.063 -0.095q0 -0.095 -0.189 -0.095h-0.189V7.828h-1.631c-0.897 0 -1.649 0.019 -1.673 0.042m16.812 3.461c0 0.07 0.074 0.095 0.284 0.095 0.16 0 0.284 0.03 0.284 0.067 0 0.101 0.166 0.248 0.28 0.248 0.055 0 0.099 0.043 0.099 0.095s0.055 0.095 0.121 0.095c0.084 0 0.134 0.059 0.163 0.189 0.023 0.104 0.082 0.189 0.131 0.189s0.09 0.057 0.09 0.126 0.028 0.127 0.063 0.127 0.063 0.109 0.063 0.244c0 0.226 0.011 0.242 0.158 0.214 0.128 -0.025 0.158 -0.005 0.158 0.103 0 0.073 -0.028 0.134 -0.063 0.134s-0.063 0.114 -0.063 0.253c0 0.139 0.028 0.252 0.063 0.252 0.038 0 0.063 0.253 0.063 0.631s-0.025 0.631 -0.063 0.631c-0.035 0 -0.063 0.071 -0.063 0.158 0 0.087 0.028 0.158 0.063 0.158 0.034 0 0.063 0.042 0.063 0.095 0 0.059 -0.059 0.095 -0.158 0.095 -0.142 0 -0.158 0.025 -0.158 0.253 0 0.139 -0.028 0.252 -0.063 0.252 -0.034 0 -0.063 0.043 -0.063 0.095 0 0.052 -0.039 0.095 -0.087 0.095 -0.048 0 -0.104 0.085 -0.125 0.189 -0.023 0.117 -0.077 0.189 -0.14 0.189 -0.056 0 -0.117 0.057 -0.135 0.127 -0.023 0.089 -0.086 0.126 -0.215 0.126 -0.154 0 -0.182 0.025 -0.182 0.165 0 0.147 -0.02 0.162 -0.189 0.137 -0.152 -0.022 -0.189 -0.005 -0.189 0.087 0 0.109 -0.106 0.115 -2.02 0.115 -1.304 0 -2.02 -0.022 -2.02 -0.063 0 -0.035 0.028 -0.063 0.063 -0.063 0.041 0 0.063 -0.978 0.063 -2.809s-0.022 -2.809 -0.063 -2.809c-0.034 0 -0.063 -0.043 -0.063 -0.095 0 -0.053 0.056 -0.095 0.126 -0.095s0.126 -0.042 0.126 -0.095c0 -0.082 0.242 -0.095 1.799 -0.095s1.799 0.012 1.799 0.095m-118.754 0.77c-0.2 0.014 -0.363 0.05 -0.363 0.08s-0.184 0.075 -0.41 0.099 -0.41 0.069 -0.41 0.1 -0.073 0.056 -0.162 0.056 -0.205 0.043 -0.257 0.095a0.356 0.356 0 0 1 -0.217 0.095c-0.067 0 -0.122 0.025 -0.122 0.056s-0.134 0.076 -0.298 0.101c-0.164 0.024 -0.341 0.092 -0.395 0.15 -0.094 0.102 -0.63 0.388 -0.728 0.388 -0.027 0 -0.142 0.099 -0.257 0.221 -0.114 0.122 -0.236 0.221 -0.271 0.221s-0.148 0.085 -0.252 0.189 -0.208 0.189 -0.23 0.189c-0.058 0 -0.221 0.17 -0.222 0.232 0 0.029 -0.214 0.26 -0.473 0.515 -0.26 0.255 -0.473 0.487 -0.473 0.517s-0.057 0.072 -0.127 0.094c-0.069 0.022 -0.126 0.081 -0.126 0.13a0.093 0.093 0 0 1 -0.095 0.091 0.095 0.095 0 0 0 -0.095 0.095c0 0.052 -0.043 0.095 -0.095 0.095 -0.053 0 -0.095 0.056 -0.095 0.126s-0.042 0.127 -0.095 0.127c-0.052 0 -0.095 0.028 -0.095 0.061s-0.355 0.414 -0.789 0.845c-0.434 0.431 -0.789 0.829 -0.789 0.885s-0.026 0.102 -0.058 0.102 -0.142 0.089 -0.245 0.197c-0.103 0.108 -0.219 0.229 -0.259 0.268 -0.745 0.742 -1.003 0.987 -1.038 0.987 -0.06 0 -0.925 0.849 -0.925 0.908 0 0.027 -0.085 0.134 -0.189 0.238s-0.189 0.223 -0.189 0.264c0 0.041 -0.071 0.128 -0.158 0.194s-0.158 0.157 -0.158 0.204 -0.028 0.086 -0.063 0.086 -0.063 0.058 -0.063 0.128c0 0.07 -0.042 0.144 -0.095 0.164 -0.052 0.02 -0.095 0.104 -0.095 0.187s-0.026 0.151 -0.058 0.151c-0.032 0 -0.077 0.085 -0.1 0.189 -0.023 0.104 -0.066 0.189 -0.097 0.189s-0.074 0.099 -0.097 0.221c-0.023 0.122 -0.067 0.221 -0.097 0.221s-0.056 0.083 -0.056 0.185c0 0.102 -0.043 0.228 -0.095 0.28 -0.052 0.052 -0.095 0.139 -0.095 0.194s-0.023 0.099 -0.051 0.099c-0.116 0 -0.202 1.134 -0.202 2.653 0 1.52 0.067 2.271 0.204 2.271 0.027 0 0.049 0.085 0.049 0.189s0.028 0.189 0.063 0.189 0.063 0.072 0.063 0.16 0.041 0.175 0.09 0.194c0.049 0.019 0.109 0.146 0.132 0.282 0.023 0.136 0.067 0.248 0.099 0.248s0.058 0.028 0.058 0.062c0 0.128 0.221 0.569 0.285 0.569 0.036 0 0.117 0.085 0.178 0.189 0.062 0.104 0.139 0.189 0.172 0.189s0.059 0.043 0.059 0.095c0 0.052 0.028 0.095 0.063 0.095s0.063 0.043 0.063 0.095 0.057 0.144 0.126 0.203 0.126 0.144 0.126 0.187c0 0.109 0.743 0.84 0.854 0.84 0.05 0 0.108 0.071 0.13 0.158s0.065 0.158 0.096 0.158 0.056 0.042 0.056 0.095c0 0.052 0.044 0.095 0.097 0.095 0.053 0 0.114 0.05 0.136 0.11 0.045 0.125 0.343 0.453 0.414 0.456 0.088 0.003 0.364 0.277 0.364 0.36 0 0.046 0.036 0.083 0.081 0.083s0.128 0.05 0.186 0.111 0.135 0.139 0.171 0.173c0.321 0.309 0.635 0.665 0.635 0.721 0 0.037 0.031 0.068 0.068 0.068 0.117 0 0.942 0.819 0.942 0.935 0 0.034 0.071 0.079 0.158 0.101 0.087 0.022 0.158 0.065 0.158 0.097 0 0.05 0.182 0.243 0.456 0.486 0.045 0.039 0.2 0.196 0.347 0.347s0.295 0.304 0.331 0.339a125.857 125.857 0 0 1 0.523 0.522c0.035 0.035 0.147 0.152 0.25 0.26s0.22 0.197 0.261 0.198c0.041 0 0.173 0.114 0.295 0.252s0.268 0.251 0.325 0.252c0.057 0 0.12 0.043 0.14 0.095 0.02 0.052 0.08 0.095 0.133 0.095 0.053 0 0.097 0.025 0.097 0.056 0 0.06 0.238 0.153 0.358 0.139 0.041 -0.005 0.091 0.046 0.112 0.112q0.038 0.12 0.283 0.159c0.135 0.022 0.256 0.07 0.269 0.109 0.013 0.038 0.157 0.084 0.321 0.103 0.164 0.018 0.298 0.058 0.298 0.088s0.043 0.055 0.095 0.055 0.095 0.024 0.095 0.054c0 0.117 0.882 0.187 2.459 0.196 1.594 0.008 2.654 -0.069 2.654 -0.194 0 -0.031 0.057 -0.056 0.126 -0.056s0.127 -0.026 0.127 -0.057 0.142 -0.077 0.315 -0.1 0.315 -0.068 0.315 -0.098 0.105 -0.074 0.233 -0.098c0.128 -0.024 0.295 -0.111 0.37 -0.192 0.076 -0.081 0.158 -0.148 0.182 -0.148 0.131 0 0.225 -0.209 0.225 -0.504v-0.323l-0.625 -0.628c-0.344 -0.346 -0.656 -0.628 -0.695 -0.628s-0.069 -0.042 -0.069 -0.095c0 -0.053 -0.056 -0.095 -0.126 -0.095q-0.127 0 -0.126 -0.128c0 -0.07 -0.043 -0.144 -0.095 -0.164 -0.052 -0.02 -0.095 -0.076 -0.095 -0.124s-0.032 -0.088 -0.072 -0.088c-0.039 0 -0.137 -0.071 -0.218 -0.158s-0.176 -0.158 -0.212 -0.158 -0.066 -0.027 -0.066 -0.059c0 -0.033 -0.057 -0.077 -0.127 -0.099 -0.069 -0.022 -0.126 -0.081 -0.126 -0.131a0.093 0.093 0 0 0 -0.095 -0.091c-0.052 0 -0.095 -0.045 -0.095 -0.102 0 -0.125 -0.981 -1.098 -1.108 -1.098 -0.051 0 -0.092 -0.059 -0.092 -0.132a0.167 0.167 0 0 0 -0.126 -0.165c-0.069 -0.018 -0.126 -0.058 -0.126 -0.089s-0.057 -0.056 -0.127 -0.056q-0.126 0 -0.126 -0.126c0 -0.07 -0.042 -0.127 -0.095 -0.127s-0.095 -0.056 -0.095 -0.126 -0.042 -0.126 -0.095 -0.126c-0.052 0 -0.095 -0.04 -0.095 -0.088 0 -0.048 -0.071 -0.106 -0.158 -0.128s-0.158 -0.067 -0.158 -0.102 -0.04 -0.062 -0.088 -0.062c-0.048 0 -0.106 -0.071 -0.128 -0.158s-0.065 -0.158 -0.097 -0.158c-0.05 0 -0.151 -0.094 -0.49 -0.456 -0.129 -0.137 -0.264 -0.239 -0.318 -0.239 -0.068 0 -0.269 -0.236 -0.269 -0.316 0 -0.034 -0.043 -0.062 -0.095 -0.062a0.095 0.095 0 0 1 -0.095 -0.095c0 -0.052 -0.028 -0.095 -0.063 -0.095 -0.034 0 -0.063 -0.043 -0.063 -0.095 0 -0.052 -0.032 -0.095 -0.072 -0.095 -0.08 0 -0.875 -0.822 -0.875 -0.904 0 -0.075 -0.169 -0.232 -0.248 -0.232 -0.037 0 -0.068 -0.028 -0.068 -0.061 0 -0.097 -1.642 -1.706 -1.741 -1.706 -0.049 0 -0.089 -0.057 -0.089 -0.126s-0.039 -0.126 -0.087 -0.126c-0.048 0 -0.102 -0.057 -0.12 -0.127 -0.018 -0.069 -0.08 -0.126 -0.137 -0.126 -0.103 0 -0.413 -0.288 -0.413 -0.384 0 -0.027 -0.05 -0.066 -0.111 -0.085 -0.108 -0.034 -0.178 -0.136 -0.342 -0.494 -0.044 -0.095 -0.1 -0.173 -0.126 -0.173s-0.065 -0.1 -0.088 -0.222 -0.067 -0.237 -0.098 -0.256c-0.077 -0.047 -0.071 -0.578 0.007 -0.627 0.035 -0.021 0.063 -0.106 0.063 -0.189s0.039 -0.188 0.086 -0.236c0.047 -0.047 0.106 -0.149 0.13 -0.225s0.069 -0.139 0.098 -0.139 0.073 -0.085 0.095 -0.189 0.081 -0.189 0.128 -0.189c0.095 0 0.85 -0.727 0.85 -0.818 0 -0.074 0.999 -1.076 1.073 -1.076s1.515 -1.442 1.515 -1.515c0 -0.031 0.355 -0.411 0.789 -0.843s0.789 -0.817 0.789 -0.855 0.043 -0.069 0.095 -0.069c0.052 0 0.095 -0.055 0.095 -0.122 0 -0.07 0.059 -0.141 0.139 -0.166 0.164 -0.052 0.262 -0.143 0.32 -0.296 0.023 -0.061 0.085 -0.111 0.138 -0.111 0.055 0 0.097 -0.055 0.097 -0.126q0 -0.127 0.128 -0.127c0.07 0 0.147 -0.05 0.17 -0.11 0.079 -0.207 0.447 -0.584 0.569 -0.584 0.044 0 0.08 -0.044 0.08 -0.097s0.05 -0.116 0.11 -0.139c0.061 -0.023 0.202 -0.136 0.315 -0.25s0.231 -0.209 0.265 -0.209c0.034 0 0.132 -0.07 0.218 -0.156 0.089 -0.089 0.267 -0.174 0.413 -0.198 0.141 -0.022 0.257 -0.062 0.257 -0.089s0.156 -0.067 0.347 -0.091 0.347 -0.07 0.347 -0.102c0 -0.034 0.443 -0.059 1.042 -0.059 0.573 0 1.042 0.025 1.042 0.055 0 0.03 0.177 0.075 0.394 0.1 0.217 0.025 0.422 0.067 0.458 0.095 0.035 0.027 0.305 0.066 0.599 0.085 0.296 0.019 0.545 0.065 0.558 0.103 0.012 0.037 0.063 0.068 0.112 0.068s0.089 0.028 0.089 0.063c0 0.102 0.752 0.078 0.857 -0.027 0.102 -0.102 0.124 -0.541 0.027 -0.541a0.063 0.063 0 0 1 -0.063 -0.062c0 -0.081 -0.202 -0.317 -0.271 -0.317 -0.076 0 -0.234 -0.167 -0.234 -0.248 0 -0.037 -0.042 -0.068 -0.095 -0.068a0.095 0.095 0 0 1 -0.095 -0.095c0 -0.052 -0.028 -0.095 -0.062 -0.095 -0.096 0 -0.317 -0.208 -0.317 -0.298 0 -0.044 -0.057 -0.081 -0.126 -0.081s-0.126 -0.026 -0.126 -0.058c0 -0.051 -0.08 -0.136 -0.511 -0.542 -0.055 -0.052 -0.121 -0.094 -0.147 -0.094 -0.077 0 -0.207 -0.155 -0.254 -0.303 -0.024 -0.077 -0.095 -0.139 -0.158 -0.139s-0.165 -0.069 -0.229 -0.154 -0.181 -0.17 -0.261 -0.191 -0.145 -0.064 -0.145 -0.098 -0.044 -0.062 -0.097 -0.062a0.155 0.155 0 0 1 -0.133 -0.095c-0.02 -0.052 -0.102 -0.095 -0.183 -0.095s-0.189 -0.043 -0.241 -0.095c-0.052 -0.052 -0.125 -0.095 -0.162 -0.095s-0.068 -0.027 -0.068 -0.06 -0.106 -0.08 -0.237 -0.104 -0.253 -0.069 -0.273 -0.1c-0.02 -0.031 -0.148 -0.074 -0.284 -0.096 -0.136 -0.022 -0.293 -0.091 -0.348 -0.154 -0.065 -0.073 -0.234 -0.13 -0.473 -0.157 -0.205 -0.023 -0.393 -0.074 -0.418 -0.112 -0.045 -0.069 -2.486 -0.111 -3.285 -0.056m49.821 0.05c0 0.069 -0.07 0.095 -0.252 0.095 -0.227 0 -0.253 0.016 -0.253 0.158 0 0.145 -0.023 0.158 -0.284 0.158 -0.211 0 -0.284 0.024 -0.284 0.095 0 0.059 -0.059 0.095 -0.158 0.095 -0.098 0 -0.158 0.036 -0.158 0.095 0 0.059 -0.059 0.095 -0.157 0.095 -0.114 0 -0.167 0.042 -0.196 0.158 -0.024 0.096 -0.084 0.158 -0.154 0.158q-0.115 0.001 -0.156 0.189c-0.023 0.104 -0.082 0.189 -0.131 0.189 -0.053 0 -0.09 0.064 -0.09 0.158 0 0.098 -0.036 0.158 -0.095 0.158a0.095 0.095 0 0 0 -0.095 0.095c0 0.052 -0.045 0.095 -0.1 0.095s-0.133 0.085 -0.172 0.189 -0.108 0.189 -0.153 0.189c-0.052 0 -0.081 0.089 -0.081 0.253 0 0.206 -0.022 0.253 -0.119 0.253 -0.075 0 -0.134 0.059 -0.159 0.158 -0.022 0.087 -0.067 0.158 -0.102 0.158s-0.062 0.126 -0.062 0.28c0 0.164 -0.039 0.319 -0.095 0.374 -0.052 0.052 -0.095 0.168 -0.095 0.257 0 0.102 -0.035 0.162 -0.095 0.162 -0.122 0 -0.137 0.664 -0.016 0.72 0.043 0.02 0.02 0.022 -0.053 0.004 -0.159 -0.038 -0.162 -0.018 -0.15 0.806 0.008 0.587 0.003 0.615 -0.124 0.615 -0.199 0 -0.2 2.69 0 2.861 0.105 0.089 0.123 0.188 0.122 0.658 -0.001 0.778 0 0.781 0.153 0.743 0.072 -0.017 0.096 -0.016 0.053 0.004 -0.123 0.057 -0.109 0.91 0.016 0.91 0.069 0 0.095 0.07 0.095 0.252s0.027 0.253 0.095 0.253c0.073 0 0.095 0.081 0.095 0.347 0 0.266 0.022 0.347 0.095 0.347 0.069 0 0.095 0.07 0.095 0.253 0 0.211 0.021 0.253 0.127 0.253 0.07 0 0.126 0.042 0.126 0.095 0 0.052 0.039 0.095 0.088 0.095 0.048 0 0.107 0.076 0.13 0.17 0.023 0.094 0.092 0.214 0.153 0.268s0.131 0.141 0.156 0.193c0.118 0.247 0.226 0.392 0.44 0.594 0.128 0.12 0.232 0.249 0.232 0.286 0 0.037 0.045 0.067 0.099 0.067 0.113 0 0.28 0.148 0.28 0.248 0 0.037 0.068 0.068 0.151 0.068 0.083 0 0.167 0.042 0.187 0.095 0.02 0.052 0.108 0.095 0.196 0.095 0.1 0 0.16 0.035 0.16 0.095 0 0.066 0.067 0.095 0.225 0.095 0.221 0 0.406 0.113 0.406 0.248 0 0.046 0.389 0.068 1.199 0.068h1.2v-0.158c0 -0.153 0.012 -0.158 0.442 -0.158 0.351 0 0.442 -0.02 0.442 -0.095q0 -0.095 0.189 -0.095t0.189 -0.095c0 -0.059 0.06 -0.095 0.158 -0.095 0.126 0 0.158 -0.032 0.158 -0.158 0 -0.127 0.031 -0.158 0.16 -0.158 0.088 0 0.176 -0.042 0.196 -0.095 0.02 -0.052 0.076 -0.095 0.124 -0.095 0.052 0 0.088 -0.065 0.088 -0.158 0 -0.087 0.028 -0.158 0.063 -0.158s0.063 -0.043 0.063 -0.095c0 -0.052 0.028 -0.095 0.063 -0.095 0.038 0 0.063 0.273 0.063 0.694v0.695h2.263c2.852 0 2.535 0.209 2.535 -1.665v-1.429h-1.452v-0.374c0 -0.248 -0.032 -0.406 -0.095 -0.469 -0.108 -0.108 -0.125 -0.23 -0.032 -0.23 0.039 0 0.063 -0.295 0.063 -0.758v-0.758h-0.158c-0.157 0 -0.158 -0.003 -0.158 -0.593 0 -0.579 0.003 -0.594 0.158 -0.632 0.182 -0.046 0.259 -1.488 0.079 -1.49 -0.061 -0.001 -0.06 -0.013 0.003 -0.053 0.137 -0.087 0.188 -6.89 0.052 -6.89 -0.055 0 -0.117 -0.071 -0.139 -0.158l-0.039 -0.158h-1.44c-1.196 0 -1.457 0.016 -1.535 0.095 -0.052 0.052 -0.125 0.095 -0.162 0.095 -0.037 0 -0.068 0.043 -0.068 0.095 0 0.052 0.028 0.095 0.063 0.095 0.037 0 0.063 0.211 0.063 0.505 0 0.294 -0.026 0.505 -0.063 0.505 -0.035 0 -0.063 -0.043 -0.063 -0.095 0 -0.052 -0.028 -0.095 -0.063 -0.095 -0.034 0 -0.063 -0.043 -0.063 -0.095a0.095 0.095 0 0 0 -0.094 -0.095c-0.052 0 -0.111 -0.071 -0.133 -0.158 -0.028 -0.113 -0.082 -0.158 -0.191 -0.158 -0.092 0 -0.151 -0.037 -0.151 -0.095 0 -0.059 -0.06 -0.095 -0.158 -0.095s-0.158 -0.036 -0.158 -0.095q0 -0.095 -0.189 -0.095c-0.16 0 -0.189 -0.025 -0.189 -0.158 0 -0.153 -0.012 -0.158 -0.442 -0.158 -0.351 0 -0.442 -0.019 -0.442 -0.095 0 -0.081 -0.172 -0.095 -1.168 -0.095s-1.168 0.014 -1.168 0.095m42.799 0c0 0.075 -0.091 0.095 -0.442 0.095 -0.43 0 -0.442 0.005 -0.442 0.158 0 0.147 -0.021 0.158 -0.315 0.158 -0.239 0 -0.316 0.023 -0.316 0.095 0 0.053 -0.056 0.095 -0.126 0.095s-0.126 0.042 -0.126 0.095 -0.056 0.095 -0.127 0.095c-0.07 0 -0.126 0.042 -0.126 0.095s-0.056 0.095 -0.126 0.095c-0.07 0 -0.127 0.03 -0.127 0.067 0 0.087 -0.161 0.248 -0.248 0.248 -0.037 0 -0.068 0.042 -0.068 0.095 0 0.059 -0.059 0.095 -0.158 0.095 -0.126 0 -0.158 0.031 -0.158 0.158 0 0.098 -0.036 0.158 -0.095 0.158a0.095 0.095 0 0 0 -0.095 0.095 0.095 0.095 0 0 1 -0.095 0.095 0.095 0.095 0 0 0 -0.095 0.095c0 0.052 -0.028 0.095 -0.063 0.095s-0.063 0.043 -0.063 0.095a0.095 0.095 0 0 1 -0.095 0.095c-0.059 0 -0.095 0.06 -0.095 0.158 0 0.126 -0.031 0.158 -0.158 0.158 -0.136 0 -0.158 0.028 -0.159 0.205 -0.002 0.3 -0.065 0.489 -0.164 0.489 -0.054 0 -0.087 0.069 -0.087 0.182 0 0.125 -0.037 0.192 -0.118 0.213 -0.098 0.025 -0.123 0.107 -0.146 0.461 -0.016 0.255 -0.058 0.44 -0.103 0.455 -0.041 0.014 -0.075 0.135 -0.075 0.269 0 0.152 -0.036 0.264 -0.095 0.297 -0.21 0.117 -0.202 5.5 0.007 5.42 0.067 -0.026 0.088 0.037 0.088 0.275 0 0.17 0.028 0.318 0.062 0.33 0.034 0.012 0.081 0.198 0.103 0.415 0.034 0.328 0.061 0.395 0.159 0.395 0.094 0 0.117 0.048 0.117 0.245 0 0.192 0.028 0.252 0.127 0.278 0.097 0.025 0.126 0.086 0.126 0.264 0 0.222 0.112 0.412 0.243 0.412 0.034 0 0.1 0.085 0.146 0.189 0.046 0.104 0.116 0.189 0.156 0.189s0.091 0.071 0.112 0.158c0.022 0.087 0.067 0.158 0.102 0.158s0.062 0.042 0.062 0.095c0 0.052 0.042 0.095 0.095 0.095 0.052 0 0.095 0.032 0.095 0.072s0.071 0.137 0.158 0.218c0.087 0.08 0.158 0.204 0.158 0.275 0 0.102 0.041 0.129 0.189 0.129q0.189 0 0.189 0.095c0 0.054 0.056 0.095 0.131 0.095 0.143 0 0.311 0.137 0.311 0.255 0 0.048 0.087 0.066 0.252 0.05 0.209 -0.02 0.253 -0.005 0.253 0.088 0 0.07 0.047 0.112 0.126 0.112 0.07 0 0.127 0.042 0.127 0.095 0 0.076 0.094 0.095 0.472 0.095 0.451 0 0.474 0.007 0.512 0.158l0.039 0.158h3.014l0.04 -0.158c0.037 -0.148 0.065 -0.158 0.443 -0.158 0.317 0 0.404 -0.02 0.404 -0.095q0 -0.095 0.189 -0.095t0.189 -0.095c0 -0.072 0.077 -0.095 0.315 -0.095 0.295 0 0.315 -0.011 0.315 -0.158 0 -0.133 0.03 -0.158 0.189 -0.158q0.189 0 0.189 -0.095c0 -0.052 0.043 -0.095 0.095 -0.095a0.095 0.095 0 0 0 0.095 -0.095c0 -0.059 0.06 -0.095 0.158 -0.095 0.126 0 0.158 -0.031 0.158 -0.158 0 -0.098 0.036 -0.158 0.095 -0.158 0.052 0 0.095 -0.043 0.095 -0.095a0.095 0.095 0 0 1 0.095 -0.095c0.052 0 0.095 -0.043 0.095 -0.095 0 -0.053 0.056 -0.095 0.126 -0.095 0.108 0 0.126 -0.042 0.126 -0.29 0 -0.237 -0.023 -0.296 -0.126 -0.323 -0.106 -0.028 -0.126 -0.086 -0.126 -0.373 0 -0.26 -0.022 -0.34 -0.095 -0.34 -0.075 0 -0.095 -0.09 -0.095 -0.431 0 -0.237 -0.02 -0.452 -0.045 -0.477s-0.037 -0.143 -0.027 -0.263c0.011 -0.125 -0.01 -0.218 -0.049 -0.218 -0.037 0 -0.068 -0.042 -0.068 -0.095 0 -0.052 -0.028 -0.095 -0.063 -0.095s-0.063 -0.114 -0.063 -0.252v-0.253h-0.284c-0.244 0 -0.284 0.018 -0.284 0.129 0 0.071 -0.071 0.195 -0.158 0.276s-0.158 0.178 -0.158 0.218 -0.085 0.072 -0.189 0.072 -0.189 0.028 -0.189 0.062c0 0.146 -0.226 0.316 -0.42 0.316 -0.162 0 -0.206 0.028 -0.223 0.142 -0.017 0.123 -0.052 0.139 -0.257 0.122 -0.236 -0.021 -0.349 0.122 -0.158 0.2 0.044 0.018 -0.078 0.034 -0.27 0.037 -0.273 0.004 -0.369 0.032 -0.44 0.131 -0.078 0.109 -0.163 0.126 -0.614 0.126 -0.481 0 -0.523 -0.01 -0.523 -0.126 0 -0.114 -0.042 -0.126 -0.442 -0.126 -0.351 0 -0.442 -0.02 -0.442 -0.095 0 -0.059 -0.059 -0.095 -0.158 -0.095 -0.126 0 -0.158 -0.032 -0.158 -0.158 0 -0.131 -0.03 -0.158 -0.18 -0.158 -0.185 0 -0.451 -0.181 -0.451 -0.307 0 -0.039 -0.041 -0.072 -0.09 -0.072s-0.107 -0.08 -0.128 -0.177 -0.095 -0.217 -0.163 -0.267c-0.071 -0.051 -0.124 -0.163 -0.124 -0.26 0 -0.094 -0.043 -0.214 -0.095 -0.266 -0.052 -0.052 -0.095 -0.168 -0.095 -0.257 0 -0.102 -0.035 -0.162 -0.095 -0.162 -0.059 0 -0.095 -0.06 -0.095 -0.158 0 -0.157 0.003 -0.158 0.592 -0.158 0.449 0 0.611 -0.023 0.67 -0.095 0.106 -0.128 0.59 -0.125 0.697 0.004 0.108 0.13 2.589 0.112 2.633 -0.019 0.02 -0.061 0.421 -0.079 1.718 -0.079 1.485 0 1.697 -0.012 1.731 -0.1 0.094 -0.245 0.041 -3.625 -0.056 -3.625 -0.07 0 -0.095 -0.073 -0.095 -0.284 0 -0.156 0.028 -0.284 0.063 -0.284 0.034 0 0.063 -0.085 0.063 -0.189s-0.028 -0.189 -0.063 -0.189 -0.063 -0.057 -0.063 -0.126c0 -0.07 -0.042 -0.127 -0.095 -0.127 -0.068 0 -0.095 -0.069 -0.095 -0.244 0 -0.522 -0.073 -0.829 -0.198 -0.829 -0.095 0 -0.117 -0.048 -0.117 -0.253 0 -0.182 -0.027 -0.252 -0.095 -0.252 -0.069 0 -0.095 -0.07 -0.095 -0.253s-0.027 -0.253 -0.095 -0.253a0.095 0.095 0 0 1 -0.095 -0.095 0.095 0.095 0 0 0 -0.095 -0.095 0.095 0.095 0 0 1 -0.095 -0.095c0 -0.052 -0.028 -0.095 -0.063 -0.095s-0.063 -0.042 -0.063 -0.095c0 -0.052 -0.039 -0.095 -0.088 -0.095 -0.048 0 -0.106 -0.071 -0.127 -0.158 -0.022 -0.087 -0.067 -0.158 -0.102 -0.158s-0.062 -0.043 -0.062 -0.095c0 -0.059 -0.059 -0.095 -0.158 -0.095 -0.098 0 -0.158 -0.036 -0.158 -0.095a0.095 0.095 0 0 0 -0.095 -0.095c-0.052 0 -0.095 -0.03 -0.095 -0.068s-0.036 -0.107 -0.079 -0.155a9.469 9.469 0 0 1 -0.161 -0.185c-0.045 -0.053 -0.166 -0.097 -0.268 -0.097q-0.186 0 -0.187 -0.095c0 -0.061 -0.062 -0.095 -0.175 -0.095 -0.12 0 -0.194 -0.044 -0.237 -0.142 -0.054 -0.124 -0.116 -0.145 -0.488 -0.161 -0.322 -0.014 -0.426 -0.041 -0.426 -0.11 0 -0.077 -0.204 -0.092 -1.294 -0.092 -1.108 0 -1.294 0.014 -1.294 0.095m-13.345 0.253c-0.038 0.152 -0.059 0.158 -0.544 0.158 -0.406 0 -0.504 0.018 -0.504 0.095q0 0.095 -0.189 0.095t-0.189 0.095c0 0.068 -0.07 0.095 -0.252 0.095s-0.253 0.026 -0.253 0.095c0 0.059 -0.059 0.095 -0.158 0.095 -0.098 0 -0.158 0.036 -0.158 0.095 0 0.052 -0.028 0.095 -0.062 0.095s-0.08 0.071 -0.102 0.158c-0.031 0.123 -0.08 0.158 -0.222 0.158 -0.153 0 -0.183 0.026 -0.183 0.158 0 0.113 -0.034 0.158 -0.121 0.158 -0.084 0 -0.134 0.059 -0.163 0.189 -0.023 0.104 -0.07 0.189 -0.104 0.189 -0.116 0 -0.243 0.179 -0.243 0.343 0 0.089 -0.028 0.162 -0.063 0.162 -0.034 0 -0.063 0.039 -0.063 0.088s-0.043 0.104 -0.095 0.124c-0.067 0.026 -0.095 0.13 -0.095 0.354 0 0.241 -0.023 0.318 -0.095 0.318 -0.073 0 -0.095 0.08 -0.095 0.343 0 0.22 -0.034 0.376 -0.095 0.437 -0.079 0.078 -0.095 0.337 -0.095 1.524 0 1.187 0.016 1.446 0.095 1.524 0.052 0.052 0.095 0.166 0.095 0.253 0 0.153 0.127 0.337 0.232 0.339 0.098 0.001 0.19 0.286 0.126 0.389 -0.042 0.067 -0.029 0.161 0.043 0.305 0.057 0.115 0.104 0.247 0.104 0.294 0 0.047 0.028 0.085 0.063 0.085 0.034 0 0.063 0.038 0.063 0.085 0 0.047 0.057 0.151 0.127 0.231 0.165 0.191 0.192 1.2 0.031 1.2 -0.081 0 -0.095 0.181 -0.095 1.247 -0.001 1.503 -0.006 1.531 -0.291 1.531 -0.172 0 -0.214 0.025 -0.214 0.127 0 0.07 -0.042 0.126 -0.095 0.126a0.096 0.096 0 0 0 -0.095 0.097 0.155 0.155 0 0 1 -0.095 0.133c-0.052 0.02 -0.095 0.076 -0.095 0.124 0 0.048 -0.043 0.088 -0.095 0.088 -0.053 0 -0.095 0.056 -0.095 0.126 0 0.069 -0.028 0.126 -0.063 0.126s-0.063 0.043 -0.063 0.095a0.095 0.095 0 0 1 -0.095 0.095c-0.068 0 -0.095 0.07 -0.095 0.253 0 0.192 -0.025 0.253 -0.104 0.253 -0.12 0 -0.08 1.148 0.042 1.189 0.103 0.034 0.075 0.497 -0.032 0.538 -0.076 0.029 -0.095 0.172 -0.095 0.733 0 0.577 0.016 0.697 0.095 0.697 0.066 0 0.095 0.067 0.095 0.221 0 0.155 0.029 0.221 0.095 0.221 0.068 0 0.095 0.069 0.095 0.245 0 0.209 0.023 0.251 0.158 0.285 0.087 0.022 0.158 0.068 0.158 0.102 0 0.034 0.042 0.062 0.095 0.062 0.069 0 0.095 0.07 0.095 0.256 0 0.156 0.025 0.241 0.064 0.217 0.035 -0.022 0.083 0.012 0.106 0.075 0.055 0.148 0.144 0.207 0.32 0.208 0.099 0.001 0.142 0.039 0.142 0.125 0 0.081 0.031 0.112 0.09 0.09 0.051 -0.02 0.12 0.022 0.16 0.097 0.039 0.072 0.124 0.131 0.19 0.131s0.162 0.042 0.214 0.095c0.052 0.052 0.193 0.095 0.313 0.095 0.181 0 0.225 0.027 0.258 0.159s0.066 0.152 0.196 0.119c0.213 -0.054 0.472 0.02 0.472 0.133 0 0.075 0.106 0.094 0.544 0.094 0.513 0 0.542 -0.007 0.511 -0.126 -0.027 -0.105 -0.002 -0.127 0.151 -0.127 0.153 0 0.183 0.026 0.183 0.158v0.158l1.436 0c2.066 0 2.667 -0.047 2.667 -0.206 0 -0.112 0.034 -0.122 0.344 -0.096 0.311 0.026 0.346 0.016 0.363 -0.103 0.015 -0.105 0.071 -0.135 0.287 -0.15 0.183 -0.013 0.269 -0.048 0.269 -0.111 0 -0.055 0.062 -0.091 0.158 -0.091 0.118 0 0.158 -0.033 0.158 -0.131 0 -0.11 0.033 -0.128 0.205 -0.111 0.172 0.017 0.208 -0.002 0.225 -0.122 0.011 -0.078 0.061 -0.142 0.11 -0.142a0.093 0.093 0 0 0 0.091 -0.095c0 -0.052 0.045 -0.095 0.099 -0.095 0.113 0 0.28 -0.147 0.28 -0.248 0 -0.037 0.028 -0.068 0.063 -0.068s0.063 -0.043 0.063 -0.095a0.095 0.095 0 0 1 0.095 -0.095c0.068 0 0.095 -0.07 0.095 -0.248 0 -0.254 0.125 -0.446 0.289 -0.446 0.067 0 0.09 -0.089 0.09 -0.347 0 -0.267 0.022 -0.347 0.095 -0.347 0.081 0 0.095 -0.189 0.095 -1.328 0 -1.122 -0.015 -1.333 -0.095 -1.364 -0.058 -0.022 -0.095 -0.118 -0.095 -0.248 0 -0.163 -0.022 -0.204 -0.095 -0.176 -0.075 0.029 -0.095 -0.018 -0.095 -0.223 0 -0.189 -0.026 -0.259 -0.095 -0.259 -0.053 0 -0.095 -0.056 -0.095 -0.126s-0.042 -0.126 -0.095 -0.126 -0.095 -0.056 -0.095 -0.127q0 -0.126 -0.125 -0.126c-0.164 0 -0.38 -0.187 -0.38 -0.33 0 -0.087 -0.054 -0.114 -0.237 -0.117 -0.13 -0.003 -0.201 -0.019 -0.158 -0.037 0.211 -0.085 0.069 -0.211 -0.237 -0.211 -0.273 0 -0.315 -0.017 -0.315 -0.127 0 -0.108 -0.042 -0.126 -0.284 -0.126 -0.211 0 -0.284 -0.025 -0.284 -0.095 0 -0.076 -0.098 -0.095 -0.505 -0.095 -0.463 0 -0.505 -0.011 -0.505 -0.126 0 -0.12 -0.044 -0.127 -0.868 -0.131 -0.477 -0.003 -0.832 -0.019 -0.789 -0.037 0.341 -0.137 0.04 -0.211 -0.868 -0.211 -0.905 0 -0.947 0.005 -0.947 0.126 0 0.102 -0.042 0.126 -0.221 0.126h-0.221v-1.01h1.515c1.304 0 1.515 -0.013 1.515 -0.095 0 -0.072 0.078 -0.095 0.322 -0.095 0.268 0 0.327 -0.021 0.355 -0.127 0.026 -0.099 0.086 -0.126 0.278 -0.126 0.222 0 0.245 -0.016 0.245 -0.165 0 -0.147 0.02 -0.162 0.189 -0.137 0.152 0.022 0.189 0.005 0.189 -0.087 0 -0.081 0.047 -0.115 0.158 -0.115 0.098 0 0.158 -0.036 0.158 -0.095a0.095 0.095 0 0 1 0.095 -0.095c0.052 0 0.095 -0.038 0.095 -0.085 0 -0.046 0.071 -0.117 0.158 -0.156 0.087 -0.039 0.158 -0.115 0.158 -0.168 0 -0.053 0.042 -0.096 0.095 -0.096 0.052 0 0.095 -0.039 0.095 -0.088s0.042 -0.104 0.095 -0.124c0.052 -0.02 0.095 -0.108 0.095 -0.196s0.027 -0.16 0.059 -0.16c0.033 0 0.079 -0.064 0.104 -0.142a0.508 0.508 0 0 1 0.162 -0.224c0.069 -0.049 0.117 -0.159 0.117 -0.269q0 -0.185 0.095 -0.186c0.073 0 0.095 -0.081 0.095 -0.347s0.022 -0.347 0.095 -0.347c0.082 0 0.095 -0.242 0.095 -1.799s-0.013 -1.799 -0.095 -1.799c-0.072 0 -0.095 -0.077 -0.095 -0.317 0 -0.224 -0.028 -0.328 -0.095 -0.354 -0.275 -0.105 0.012 -0.149 0.978 -0.149h1.073v-2.651h-0.189c-0.179 0 -0.189 -0.014 -0.189 -0.253v-0.253h-7.814zm45.981 1.42c0 1.361 0.013 1.578 0.095 1.578 0.053 0 0.095 0.056 0.095 0.126 0 0.089 0.042 0.127 0.142 0.127 0.078 0 0.206 0.018 0.284 0.039 0.121 0.033 0.142 0.014 0.142 -0.127 0 -0.158 0.015 -0.165 0.347 -0.165 0.305 0 0.347 0.015 0.347 0.126q0 0.126 0.127 0.126c0.115 0 0.379 0.201 0.379 0.289 0 0.02 0.042 0.079 0.095 0.131 0.052 0.052 0.095 0.176 0.095 0.275 0 0.124 0.039 0.193 0.123 0.22 0.068 0.022 0.143 0.102 0.167 0.178 0.024 0.076 0.139 0.229 0.256 0.34s0.212 0.259 0.212 0.331 0.039 0.13 0.087 0.13c0.1 0 0.163 0.189 0.164 0.489 0 0.13 0.032 0.205 0.086 0.205 0.109 0 0.357 0.214 0.357 0.307 0 0.039 0.043 0.072 0.095 0.072 0.059 0 0.095 0.059 0.095 0.158 0 0.098 0.036 0.158 0.095 0.158a0.095 0.095 0 0 1 0.095 0.095c0 0.052 0.028 0.095 0.063 0.095 0.034 0 0.063 0.072 0.063 0.16s0.039 0.175 0.086 0.193 0.14 0.145 0.205 0.281c0.065 0.137 0.154 0.248 0.198 0.249s0.079 0.072 0.079 0.159c0 0.098 -0.036 0.158 -0.095 0.158 -0.059 0 -0.095 0.059 -0.095 0.158 0 0.087 -0.028 0.158 -0.063 0.158s-0.063 0.042 -0.063 0.095c0 0.052 -0.043 0.095 -0.095 0.095a0.093 0.093 0 0 0 -0.095 0.09c0 0.05 -0.036 0.128 -0.079 0.175 -0.14 0.15 -0.3 0.477 -0.3 0.613 0 0.076 -0.041 0.133 -0.095 0.133 -0.052 0 -0.095 0.032 -0.095 0.071 0 0.091 -0.246 0.308 -0.349 0.308 -0.042 0 -0.095 0.114 -0.117 0.252 -0.026 0.164 -0.073 0.253 -0.134 0.253 -0.052 0 -0.094 0.036 -0.094 0.081s-0.057 0.122 -0.127 0.172c-0.069 0.05 -0.126 0.127 -0.126 0.172s-0.043 0.081 -0.095 0.081c-0.067 0 -0.095 0.069 -0.096 0.237 -0.001 0.169 -0.046 0.279 -0.158 0.386 -0.086 0.082 -0.156 0.174 -0.156 0.205s-0.043 0.057 -0.095 0.057c-0.052 0 -0.095 0.038 -0.095 0.085 0 0.109 -0.214 0.357 -0.308 0.357 -0.039 0 -0.071 0.057 -0.071 0.127 0 0.119 -0.042 0.126 -0.789 0.126h-0.789v3.093h6.06v-3.093l-0.363 -0.005c-0.2 -0.003 -0.328 -0.019 -0.284 -0.037s0.079 -0.098 0.079 -0.18 0.041 -0.189 0.09 -0.238 0.109 -0.194 0.133 -0.321c0.032 -0.172 0.082 -0.24 0.194 -0.269 0.083 -0.021 0.151 -0.077 0.151 -0.125s0.028 -0.088 0.063 -0.088c0.034 0 0.063 -0.04 0.063 -0.088 0 -0.048 0.043 -0.104 0.095 -0.124 0.052 -0.02 0.095 -0.077 0.095 -0.126s0.043 -0.106 0.095 -0.126c0.059 -0.023 0.095 -0.119 0.095 -0.259 0 -0.156 0.028 -0.223 0.095 -0.223a0.095 0.095 0 0 0 0.095 -0.095 0.095 0.095 0 0 1 0.189 0c0 0.053 0.056 0.095 0.127 0.095q0.126 0 0.126 0.124c0 0.084 0.03 0.112 0.095 0.088 0.069 -0.027 0.095 0.008 0.095 0.128 0 0.09 0.036 0.165 0.079 0.165 0.097 0.001 0.237 0.288 0.237 0.486 0 0.082 0.038 0.145 0.088 0.145 0.048 0 0.106 0.071 0.128 0.158 0.022 0.087 0.067 0.158 0.102 0.158s0.062 0.042 0.062 0.095c0 0.052 0.043 0.095 0.095 0.095 0.052 0 0.095 0.039 0.095 0.088s0.043 0.105 0.095 0.124c0.052 0.02 0.095 0.092 0.095 0.159 0 0.067 0.036 0.137 0.079 0.155s-0.127 0.034 -0.379 0.037l-0.458 0.005v3.093h6.092v-1.547l0 -1.546h-1.533l-0.041 -0.166c-0.023 -0.091 -0.126 -0.25 -0.228 -0.352 -0.102 -0.102 -0.186 -0.226 -0.186 -0.276 0 -0.05 -0.057 -0.09 -0.127 -0.09 -0.092 0 -0.126 -0.042 -0.126 -0.158 0 -0.106 -0.036 -0.159 -0.111 -0.163 -0.066 -0.003 -0.078 -0.018 -0.031 -0.037 0.098 -0.039 0.105 -0.211 0.008 -0.211 -0.14 0 -0.561 -0.491 -0.602 -0.703 -0.023 -0.117 -0.079 -0.235 -0.126 -0.263 -0.047 -0.028 -0.085 -0.107 -0.085 -0.176s-0.048 -0.143 -0.106 -0.166c-0.17 -0.066 -0.336 -0.261 -0.336 -0.397 0 -0.07 -0.042 -0.127 -0.095 -0.127a0.095 0.095 0 0 1 -0.095 -0.095 0.095 0.095 0 0 0 -0.095 -0.095 0.095 0.095 0 0 1 -0.095 -0.095c0 -0.052 -0.025 -0.095 -0.056 -0.095 -0.031 0 -0.074 -0.071 -0.096 -0.158 -0.022 -0.087 -0.068 -0.158 -0.102 -0.158 -0.034 0 -0.062 -0.043 -0.062 -0.095a0.095 0.095 0 0 0 -0.095 -0.095c-0.066 0 -0.095 -0.066 -0.095 -0.216 0 -0.152 -0.031 -0.222 -0.106 -0.237 -0.099 -0.019 -0.099 -0.027 0 -0.127 0.058 -0.058 0.106 -0.126 0.106 -0.151 0 -0.025 0.085 -0.127 0.189 -0.226s0.189 -0.223 0.189 -0.275c0 -0.052 0.028 -0.094 0.063 -0.094 0.034 0 0.063 -0.043 0.063 -0.095a0.095 0.095 0 0 1 0.095 -0.095 0.095 0.095 0 0 0 0.095 -0.095 0.095 0.095 0 0 1 0.095 -0.095c0.052 0 0.095 -0.03 0.095 -0.068s0.043 -0.11 0.095 -0.162c0.052 -0.052 0.095 -0.206 0.095 -0.343 0 -0.184 0.026 -0.248 0.1 -0.248 0.055 0 0.132 -0.085 0.172 -0.189s0.108 -0.189 0.152 -0.189 0.081 -0.042 0.081 -0.095c0 -0.052 0.028 -0.095 0.062 -0.095s0.08 -0.071 0.102 -0.158c0.025 -0.099 0.084 -0.158 0.159 -0.158 0.066 0 0.116 -0.021 0.112 -0.047 -0.028 -0.178 0.021 -0.331 0.106 -0.331 0.056 0 0.094 -0.048 0.088 -0.111 -0.017 -0.18 0.074 -0.394 0.168 -0.394 0.083 0 0.117 -0.084 0.09 -0.221 -0.007 -0.034 0.007 -0.043 0.031 -0.019 0.052 0.052 0.219 -0.099 0.219 -0.198 0 -0.037 0.042 -0.068 0.095 -0.068a0.095 0.095 0 0 0 0.095 -0.095c0 -0.059 0.059 -0.095 0.158 -0.095 0.116 0 0.158 -0.034 0.158 -0.126 0 -0.111 0.042 -0.126 0.343 -0.126 0.287 0 0.35 0.02 0.383 0.126 0.069 0.217 0.512 0.179 0.548 -0.047 0.021 -0.137 0.017 -2.454 -0.006 -3.093l-0.005 -0.142h-6.06v3.42l0.347 -0.022c0.325 -0.02 0.347 -0.012 0.347 0.12 0 0.078 -0.028 0.142 -0.063 0.142s-0.063 0.071 -0.063 0.158c0 0.098 -0.036 0.158 -0.095 0.158a0.095 0.095 0 0 0 -0.095 0.095c0 0.052 -0.039 0.095 -0.087 0.095s-0.104 0.05 -0.125 0.111c-0.051 0.152 -0.177 0.341 -0.309 0.464 -0.121 0.113 -0.147 0.246 -0.047 0.246 0.035 0 0.063 0.028 0.063 0.063 0 0.034 -0.043 0.063 -0.095 0.063s-0.095 0.04 -0.095 0.088c0 0.048 -0.043 0.104 -0.095 0.124s-0.095 0.077 -0.095 0.125c0 0.049 -0.057 0.104 -0.126 0.122a0.168 0.168 0 0 0 -0.127 0.165c0 0.075 -0.041 0.132 -0.095 0.132 -0.059 0 -0.095 -0.059 -0.095 -0.158 0 -0.098 -0.036 -0.158 -0.095 -0.158a0.095 0.095 0 0 1 -0.095 -0.095c0 -0.052 0.028 -0.095 0.063 -0.095 0.134 0 0.055 -0.189 -0.095 -0.226 -0.103 -0.026 -0.158 -0.084 -0.158 -0.166 0 -0.086 -0.03 -0.115 -0.095 -0.09 -0.064 0.025 -0.095 -0.003 -0.095 -0.088 0 -0.069 -0.028 -0.124 -0.063 -0.124s-0.063 -0.114 -0.063 -0.253c0 -0.177 -0.027 -0.253 -0.09 -0.253 -0.139 0 -0.289 -0.182 -0.289 -0.351 0 -0.09 -0.037 -0.153 -0.089 -0.153 -0.058 0 -0.077 -0.044 -0.056 -0.126 0.023 -0.088 0.002 -0.127 -0.069 -0.127 -0.06 0 -0.102 -0.052 -0.102 -0.126 0 -0.07 0.042 -0.126 0.095 -0.126s0.095 0.056 0.095 0.126c0 0.105 0.042 0.126 0.252 0.126h0.253V12.246h-6.06zm-37.417 -0.779c-0.135 0.054 -0.096 0.386 0.05 0.433 0.164 0.052 0.313 -0.069 0.313 -0.255 0 -0.179 -0.162 -0.259 -0.363 -0.178m-6.518 2.483c0 0.099 0.042 0.126 0.194 0.126 0.165 0 0.188 0.019 0.154 0.127s-0.011 0.126 0.153 0.126c0.152 0 0.194 0.027 0.194 0.126 0 0.07 0.042 0.127 0.095 0.127a0.095 0.095 0 0 1 0.095 0.095c0 0.052 0.028 0.095 0.063 0.095s0.063 0.114 0.063 0.252c0 0.183 0.026 0.253 0.095 0.253 0.075 0 0.095 0.091 0.095 0.442 0 0.301 0.024 0.442 0.076 0.442 0.059 0 0.059 0.017 0 0.076 -0.1 0.1 -0.098 0.428 0.003 0.434 0.063 0.004 0.063 0.011 0 0.037 -0.048 0.019 -0.079 0.153 -0.079 0.344 0 0.219 -0.028 0.323 -0.095 0.348 -0.059 0.023 -0.095 0.119 -0.095 0.251 0 0.118 -0.028 0.214 -0.063 0.214s-0.063 0.041 -0.063 0.09c0 0.049 -0.085 0.175 -0.189 0.279s-0.189 0.22 -0.189 0.257 -0.085 0.068 -0.189 0.068q-0.189 0 -0.189 0.095c0 0.08 -0.147 0.095 -0.947 0.095s-0.947 -0.015 -0.947 -0.095c0 -0.059 -0.059 -0.095 -0.158 -0.095 -0.087 0 -0.158 -0.031 -0.158 -0.068s-0.085 -0.153 -0.189 -0.257 -0.189 -0.23 -0.189 -0.279c0 -0.05 -0.053 -0.09 -0.119 -0.09 -0.13 0 -0.194 -0.161 -0.196 -0.489 0 -0.113 -0.029 -0.205 -0.064 -0.205s-0.063 -0.043 -0.063 -0.095c0 -0.052 0.028 -0.095 0.063 -0.095 0.039 0 0.063 -0.326 0.063 -0.852 0 -0.715 0.015 -0.852 0.095 -0.852 0.059 0 0.095 -0.059 0.095 -0.158 0 -0.087 0.027 -0.158 0.059 -0.158s0.068 -0.092 0.079 -0.205c0.015 -0.155 0.047 -0.201 0.13 -0.187 0.081 0.014 0.111 -0.024 0.111 -0.142 0 -0.088 0.028 -0.161 0.063 -0.161s0.063 -0.042 0.063 -0.095c0 -0.059 0.059 -0.095 0.158 -0.095 0.087 0 0.154 -0.021 0.15 -0.047 -0.031 -0.194 0.02 -0.205 0.891 -0.205 0.842 0 0.884 0.006 0.884 0.126m13.382 0.258c0 0.119 0.025 0.128 0.253 0.089 0.206 -0.035 0.253 -0.025 0.253 0.058 0 0.058 0.053 0.1 0.126 0.1 0.092 0 0.126 0.042 0.126 0.158 0 0.132 0.03 0.158 0.182 0.158 0.179 0 0.29 0.153 0.264 0.364 -0.005 0.044 0.041 0.098 0.104 0.121 0.184 0.066 0.334 0.256 0.334 0.423 0 0.086 0.042 0.199 0.095 0.251 0.059 0.059 0.095 0.214 0.095 0.415 0 0.243 0.023 0.32 0.095 0.32 0.073 0 0.095 0.081 0.095 0.347v0.347h-2.683c-2.57 0 -2.683 -0.005 -2.683 -0.117 0 -0.414 0.089 -0.893 0.167 -0.893 0.05 0 0.086 -0.067 0.086 -0.162 0 -0.089 0.042 -0.205 0.095 -0.257 0.052 -0.052 0.095 -0.172 0.095 -0.266 0 -0.097 0.053 -0.209 0.124 -0.26 0.068 -0.049 0.141 -0.169 0.163 -0.267s0.079 -0.177 0.128 -0.177 0.09 -0.032 0.09 -0.072c0 -0.126 0.266 -0.307 0.451 -0.307 0.15 0 0.18 -0.027 0.18 -0.159 0 -0.138 0.02 -0.154 0.158 -0.119 0.131 0.033 0.158 0.017 0.158 -0.094 0 -0.128 0.03 -0.133 0.726 -0.133 0.694 0 0.726 0.006 0.726 0.132m-42.483 0.125c0 0.151 0.191 0.248 0.486 0.248 0.21 0 0.339 0.035 0.411 0.11 0.18 0.191 0.294 0.269 0.394 0.269 0.054 0 0.097 0.032 0.097 0.071 0 0.039 0.058 0.122 0.13 0.184 0.071 0.062 0.147 0.221 0.169 0.354 0.039 0.24 0.142 0.401 0.258 0.401 0.075 0 0.136 0.219 0.137 0.489 0.001 0.161 0.027 0.205 0.125 0.205 0.119 0 0.125 0.057 0.142 1.341 0.03 2.181 0.006 2.616 -0.142 2.654 -0.094 0.025 -0.124 0.087 -0.124 0.259 0 0.159 -0.028 0.227 -0.095 0.227 -0.069 0 -0.095 0.07 -0.095 0.253 0 0.173 -0.028 0.252 -0.088 0.252 -0.048 0 -0.107 0.077 -0.131 0.17 -0.023 0.093 -0.094 0.214 -0.156 0.268a0.644 0.644 0 0 0 -0.159 0.243c-0.029 0.092 -0.112 0.158 -0.228 0.181 -0.101 0.02 -0.216 0.076 -0.255 0.124 -0.04 0.048 -0.182 0.087 -0.317 0.087 -0.203 0 -0.245 0.022 -0.245 0.126 0 0.117 -0.042 0.126 -0.568 0.126s-0.568 -0.009 -0.568 -0.126c0 -0.108 -0.042 -0.126 -0.284 -0.126 -0.201 0 -0.284 -0.026 -0.284 -0.088 0 -0.048 -0.043 -0.104 -0.095 -0.124 -0.052 -0.02 -0.095 -0.094 -0.095 -0.164 0 -0.094 -0.041 -0.128 -0.155 -0.128 -0.086 0 -0.192 -0.045 -0.237 -0.099a8.333 8.333 0 0 0 -0.176 -0.205 0.348 0.348 0 0 1 -0.075 -0.248q0.021 -0.143 -0.079 -0.142c-0.068 0 -0.099 -0.059 -0.099 -0.189q0 -0.189 -0.095 -0.189c-0.068 0 -0.095 -0.07 -0.095 -0.253 0 -0.139 -0.028 -0.252 -0.063 -0.252s-0.064 -0.092 -0.064 -0.205c-0.002 -0.3 -0.065 -0.489 -0.164 -0.489 -0.072 0 -0.087 -0.258 -0.087 -1.452 0 -1.243 0.014 -1.452 0.094 -1.452 0.061 0 0.108 -0.089 0.134 -0.253 0.022 -0.139 0.065 -0.253 0.095 -0.253s0.055 -0.085 0.055 -0.189q0 -0.189 0.095 -0.189c0.069 0 0.095 -0.07 0.095 -0.252 0 -0.139 0.028 -0.253 0.063 -0.253s0.063 -0.043 0.063 -0.095c0 -0.052 0.039 -0.095 0.088 -0.095 0.048 0 0.106 -0.071 0.127 -0.158 0.022 -0.087 0.067 -0.158 0.102 -0.158s0.062 -0.043 0.062 -0.096c0 -0.069 0.041 -0.085 0.149 -0.058 0.115 0.029 0.157 0.008 0.183 -0.094a0.168 0.168 0 0 1 0.166 -0.131c0.075 0 0.132 -0.041 0.132 -0.095 0 -0.073 0.081 -0.095 0.347 -0.095 0.295 0 0.347 -0.018 0.347 -0.116 0 -0.064 0.019 -0.134 0.042 -0.158 0.069 -0.069 0.526 -0.047 0.526 0.026m14.563 0.043c0.053 0.145 0.144 0.203 0.318 0.204 0.084 0.001 0.142 0.04 0.142 0.096 0 0.052 0.043 0.095 0.095 0.095a0.095 0.095 0 0 1 0.095 0.095q0 0.095 0.189 0.095t0.189 0.095c0 0.052 0.028 0.095 0.062 0.095s0.08 0.071 0.102 0.158c0.022 0.087 0.065 0.158 0.096 0.158s0.056 0.085 0.056 0.189 0.028 0.189 0.062 0.189 0.081 0.078 0.105 0.173 0.081 0.211 0.128 0.257 0.084 0.196 0.084 0.332c0 0.206 0.021 0.248 0.126 0.248 0.123 0 0.126 0.042 0.126 1.799s-0.003 1.799 -0.126 1.799c-0.105 0 -0.126 0.042 -0.126 0.255 0 0.168 -0.032 0.267 -0.095 0.291 -0.052 0.02 -0.095 0.105 -0.095 0.187 0 0.092 -0.037 0.151 -0.095 0.151 -0.069 0 -0.095 0.07 -0.095 0.253 0 0.139 -0.028 0.252 -0.063 0.252s-0.063 0.043 -0.063 0.095a0.095 0.095 0 0 1 -0.095 0.095 0.095 0.095 0 0 0 -0.095 0.095q0 0.095 -0.189 0.095c-0.16 0 -0.189 0.025 -0.189 0.158 0 0.098 -0.036 0.158 -0.095 0.158a0.095 0.095 0 0 0 -0.095 0.095c0 0.068 -0.07 0.095 -0.252 0.095 -0.211 0 -0.253 0.021 -0.253 0.126 0 0.118 -0.042 0.126 -0.663 0.126s-0.663 -0.008 -0.663 -0.126c0 -0.098 -0.042 -0.126 -0.189 -0.126q-0.189 0 -0.189 -0.095c0 -0.056 -0.058 -0.095 -0.144 -0.095 -0.141 0 -0.361 -0.193 -0.361 -0.317a0.062 0.062 0 0 0 -0.062 -0.062c-0.034 0 -0.08 -0.071 -0.102 -0.158 -0.022 -0.087 -0.08 -0.158 -0.129 -0.158 -0.063 0 -0.078 -0.045 -0.049 -0.158 0.034 -0.137 0.019 -0.158 -0.118 -0.158 -0.162 0 -0.233 -0.128 -0.234 -0.426 -0.001 -0.084 -0.04 -0.142 -0.096 -0.142 -0.068 0 -0.095 -0.07 -0.095 -0.253 0 -0.182 -0.026 -0.252 -0.095 -0.252 -0.075 0 -0.095 -0.091 -0.095 -0.442 0 -0.253 -0.027 -0.442 -0.063 -0.442 -0.039 0 -0.063 -0.358 -0.063 -0.947 0 -0.589 0.024 -0.947 0.063 -0.947 0.036 0 0.063 -0.179 0.063 -0.41 0 -0.323 0.02 -0.41 0.095 -0.41 0.069 0 0.095 -0.07 0.095 -0.253 0 -0.172 0.028 -0.253 0.086 -0.253 0.053 0 0.1 -0.098 0.121 -0.256 0.02 -0.147 0.09 -0.305 0.166 -0.37 0.072 -0.063 0.132 -0.146 0.132 -0.186s0.042 -0.072 0.095 -0.072c0.059 0 0.095 -0.059 0.095 -0.158 0 -0.098 0.036 -0.158 0.095 -0.158 0.052 0 0.095 -0.028 0.095 -0.062 0 -0.123 0.22 -0.316 0.361 -0.316 0.086 0 0.144 -0.038 0.144 -0.095 0 -0.06 0.06 -0.095 0.162 -0.095 0.166 0 0.342 -0.128 0.342 -0.248 0 -0.128 1.196 -0.087 1.244 0.043m-63.323 1.882c-0.055 0.055 -0.099 0.125 -0.099 0.157s-0.071 0.075 -0.158 0.097 -0.158 0.079 -0.158 0.127 -0.027 0.088 -0.059 0.088c-0.033 0 -0.079 0.062 -0.103 0.138s-0.253 0.347 -0.509 0.602 -0.465 0.489 -0.465 0.52c0 0.087 -0.52 0.571 -0.614 0.571 -0.056 0 -0.269 0.23 -0.269 0.291 0 0.078 -0.238 0.334 -0.276 0.297 -0.022 -0.022 -0.04 0.022 -0.04 0.098 0 0.077 -0.04 0.154 -0.089 0.173 -0.049 0.019 -0.106 0.103 -0.128 0.187s-0.066 0.153 -0.1 0.153 -0.062 0.043 -0.062 0.095c0 0.052 -0.03 0.095 -0.067 0.095s-0.052 0.024 -0.034 0.054 -0.023 0.114 -0.092 0.188c-0.069 0.074 -0.143 0.227 -0.166 0.341 -0.022 0.113 -0.057 0.22 -0.078 0.238s-0.092 0.188 -0.157 0.379 -0.14 0.376 -0.165 0.41c-0.025 0.035 -0.061 0.245 -0.08 0.467 -0.019 0.222 -0.071 0.425 -0.114 0.453 -0.106 0.066 -0.125 2.692 -0.019 2.76 0.038 0.025 0.086 0.253 0.107 0.508 0.021 0.255 0.064 0.496 0.097 0.537 0.033 0.041 0.079 0.251 0.104 0.468s0.07 0.394 0.102 0.394 0.057 0.043 0.057 0.095c0 0.052 0.025 0.095 0.055 0.095s0.073 0.114 0.095 0.253 0.066 0.253 0.098 0.253c0.031 0 0.076 0.085 0.099 0.189s0.068 0.189 0.1 0.189 0.058 0.054 0.058 0.119 0.042 0.136 0.095 0.156a0.155 0.155 0 0 1 0.095 0.133c0 0.053 0.025 0.097 0.056 0.097 0.031 0 0.074 0.071 0.096 0.158 0.022 0.087 0.068 0.158 0.102 0.158 0.034 0 0.062 0.041 0.062 0.09s0.071 0.146 0.158 0.214 0.158 0.156 0.158 0.196 0.043 0.088 0.095 0.108c0.052 0.02 0.095 0.063 0.095 0.096 0 0.075 1.249 1.315 1.324 1.315 0.047 0 0.219 0.161 0.485 0.456 0.04 0.044 0.145 0.137 0.234 0.207 0.088 0.069 0.162 0.176 0.164 0.237s0.036 0.11 0.077 0.11 0.119 0.042 0.173 0.094a31.058 31.058 0 0 1 0.55 0.545c0.03 0.031 0.175 0.169 0.323 0.308s0.268 0.291 0.268 0.34c0 0.048 0.075 0.106 0.166 0.13 0.1 0.025 0.703 0.579 1.518 1.395 0.744 0.745 1.391 1.354 1.437 1.354 0.047 0 0.101 0.043 0.121 0.095 0.02 0.052 0.08 0.095 0.133 0.095s0.097 0.027 0.097 0.059 0.062 0.079 0.139 0.103 0.178 0.083 0.225 0.13c0.048 0.048 0.127 0.086 0.177 0.086s0.09 0.028 0.09 0.063 0.042 0.063 0.095 0.063c0.052 0 0.095 0.025 0.095 0.056 0 0.031 0.071 0.074 0.158 0.096 0.087 0.022 0.158 0.067 0.158 0.101 0 0.033 0.114 0.079 0.253 0.102 0.139 0.022 0.252 0.065 0.252 0.095s0.043 0.055 0.095 0.055c0.052 0 0.095 0.023 0.095 0.052s0.085 0.04 0.189 0.024c0.114 -0.017 0.189 0 0.189 0.042 0 0.039 0.071 0.07 0.158 0.07s0.158 0.025 0.158 0.055 0.148 0.075 0.33 0.099c0.181 0.024 0.351 0.078 0.376 0.119 0.061 0.099 3.51 0.1 3.575 0.002 0.023 -0.036 0.149 -0.086 0.279 -0.11 0.13 -0.024 0.237 -0.07 0.237 -0.104 0 -0.033 0.128 -0.06 0.284 -0.06 0.166 0 0.284 -0.029 0.284 -0.07 0 -0.039 0.043 -0.054 0.095 -0.033 0.056 0.021 0.127 -0.016 0.173 -0.09 0.046 -0.073 0.177 -0.142 0.315 -0.164 0.13 -0.021 0.237 -0.06 0.237 -0.086s0.073 -0.067 0.163 -0.089c0.09 -0.023 0.233 -0.111 0.319 -0.196s0.197 -0.155 0.247 -0.155c0.051 0 0.092 -0.028 0.092 -0.063s0.035 -0.063 0.079 -0.063c0.044 0 0.17 -0.086 0.281 -0.189 0.111 -0.104 0.229 -0.189 0.261 -0.189 0.033 0 0.077 -0.042 0.096 -0.095 0.02 -0.052 0.094 -0.095 0.165 -0.095 0.072 0 0.128 -0.041 0.128 -0.095a0.095 0.095 0 0 1 0.094 -0.095c0.052 0 0.111 -0.071 0.133 -0.158 0.025 -0.099 0.084 -0.158 0.159 -0.158 0.066 0 0.12 -0.028 0.12 -0.063 0 -0.034 0.039 -0.063 0.087 -0.063s0.104 -0.085 0.125 -0.189c0.022 -0.111 0.078 -0.189 0.134 -0.189 0.053 0 0.096 -0.027 0.096 -0.059s0.057 -0.077 0.126 -0.099 0.144 -0.109 0.165 -0.194 0.065 -0.154 0.097 -0.154c0.081 0 0.351 -0.244 0.859 -0.775 0.026 -0.027 0.122 -0.115 0.214 -0.196s0.177 -0.201 0.19 -0.267 0.085 -0.128 0.161 -0.139c0.076 -0.011 0.156 -0.077 0.178 -0.145 0.055 -0.172 1.648 -1.76 1.766 -1.76a0.093 0.093 0 0 0 0.094 -0.091c0 -0.05 0.492 -0.583 1.092 -1.185 0.601 -0.602 1.111 -1.143 1.134 -1.204s0.07 -0.109 0.104 -0.109c0.034 0 0.081 -0.099 0.104 -0.221 0.023 -0.122 0.067 -0.221 0.097 -0.221s0.056 -0.044 0.056 -0.097c0 -0.053 0.043 -0.113 0.095 -0.133 0.052 -0.02 0.095 -0.104 0.095 -0.187 0 -0.083 0.028 -0.151 0.062 -0.151s0.081 -0.114 0.103 -0.253 0.063 -0.253 0.091 -0.253 0.069 -0.085 0.092 -0.189 0.068 -0.189 0.1 -0.189 0.058 -0.098 0.058 -0.217c0 -0.12 0.031 -0.236 0.069 -0.26 0.038 -0.023 0.055 -0.096 0.037 -0.161 -0.017 -0.066 -0.006 -0.103 0.026 -0.084 0.033 0.02 0.057 -0.211 0.057 -0.536 0 -0.339 0.025 -0.572 0.063 -0.572 0.04 0 0.063 -0.452 0.063 -1.231 0 -0.677 -0.025 -1.231 -0.056 -1.231s-0.076 -0.185 -0.1 -0.41c-0.024 -0.226 -0.07 -0.411 -0.102 -0.411s-0.058 -0.042 -0.058 -0.095c0 -0.052 -0.025 -0.095 -0.055 -0.095s-0.071 -0.143 -0.092 -0.317c-0.021 -0.174 -0.082 -0.361 -0.135 -0.415 -0.054 -0.053 -0.097 -0.174 -0.097 -0.268 0 -0.099 -0.054 -0.21 -0.127 -0.262 -0.069 -0.05 -0.126 -0.125 -0.126 -0.167s-0.037 -0.114 -0.083 -0.159a0.682 0.682 0 0 1 -0.124 -0.194c-0.085 -0.225 -0.959 -0.125 -1.02 0.117 -0.021 0.083 -0.068 0.151 -0.105 0.151s-0.152 0.085 -0.256 0.189 -0.215 0.189 -0.247 0.189 -0.075 0.071 -0.097 0.158c-0.022 0.087 -0.079 0.158 -0.128 0.158 -0.048 0 -0.088 0.036 -0.088 0.08s-0.071 0.133 -0.158 0.198 -0.158 0.172 -0.158 0.236c0 0.065 -0.041 0.117 -0.091 0.117 -0.117 0 -1.905 1.782 -1.959 1.953 -0.023 0.072 -0.093 0.13 -0.156 0.13 -0.069 0 -0.131 0.061 -0.153 0.151a0.273 0.273 0 0 1 -0.197 0.191c-0.087 0.022 -0.159 0.075 -0.16 0.117 -0.003 0.105 -0.222 0.362 -0.308 0.362 -0.038 0 -0.069 0.042 -0.069 0.095a0.095 0.095 0 0 1 -0.095 0.095c-0.052 0 -0.095 0.031 -0.095 0.07 0 0.039 -0.071 0.126 -0.158 0.194 -0.087 0.069 -0.158 0.165 -0.158 0.214s-0.029 0.09 -0.064 0.09c-0.095 0 -0.567 0.461 -0.567 0.554 0 0.044 -0.05 0.1 -0.111 0.123 -0.13 0.049 -0.267 0.176 -0.27 0.249 -0.001 0.029 -0.145 0.18 -0.319 0.336a51.889 51.889 0 0 0 -0.605 0.553c-0.158 0.147 -0.311 0.268 -0.339 0.268s-0.072 0.062 -0.096 0.139c-0.049 0.155 -0.178 0.303 -0.264 0.303 -0.031 0 -0.218 0.17 -0.416 0.379 -0.198 0.208 -0.39 0.379 -0.426 0.379s-0.053 0.021 -0.037 0.047c0.016 0.026 -0.071 0.133 -0.191 0.237s-0.295 0.27 -0.387 0.37c-0.492 0.529 -0.567 0.599 -0.603 0.563 -0.022 -0.021 -0.039 -0.008 -0.039 0.03 0 0.038 -0.085 0.149 -0.189 0.247a16.286 16.286 0 0 0 -0.715 0.714c-0.098 0.105 -0.203 0.191 -0.233 0.191 -0.03 0 -0.072 0.054 -0.093 0.12s-0.108 0.137 -0.194 0.159 -0.156 0.066 -0.156 0.1 -0.114 0.08 -0.252 0.102 -0.253 0.065 -0.253 0.095 -0.185 0.055 -0.41 0.055c-0.231 0 -0.411 -0.028 -0.411 -0.063 0 -0.035 -0.055 -0.063 -0.122 -0.063a0.341 0.341 0 0 1 -0.208 -0.086 0.644 0.644 0 0 0 -0.222 -0.13c-0.075 -0.023 -0.153 -0.098 -0.175 -0.166 -0.022 -0.068 -0.081 -0.123 -0.133 -0.123 -0.105 0 -2.233 -2.105 -2.233 -2.208a0.066 0.066 0 0 0 -0.067 -0.065c-0.037 0 -0.691 -0.625 -1.454 -1.389s-1.429 -1.388 -1.48 -1.388c-0.052 0 -0.093 -0.058 -0.093 -0.13 0 -0.071 -0.027 -0.113 -0.06 -0.092s-0.4 -0.305 -0.814 -0.722 -0.771 -0.759 -0.792 -0.759c-0.065 0 -0.417 -0.333 -0.417 -0.394 0 -0.031 -0.085 -0.143 -0.189 -0.247s-0.189 -0.23 -0.189 -0.279c0 -0.049 -0.028 -0.09 -0.063 -0.09 -0.034 0 -0.063 -0.043 -0.063 -0.095 0 -0.052 -0.027 -0.095 -0.06 -0.095s-0.079 -0.1 -0.102 -0.221c-0.023 -0.122 -0.064 -0.221 -0.091 -0.221 -0.028 0 -0.07 -0.17 -0.094 -0.379s-0.07 -0.379 -0.101 -0.379 -0.057 -0.071 -0.057 -0.158 -0.028 -0.158 -0.063 -0.158c-0.039 0 -0.063 -0.305 -0.063 -0.789s0.024 -0.789 0.063 -0.789c0.034 0 0.063 -0.097 0.063 -0.216s0.03 -0.226 0.066 -0.238 0.083 -0.185 0.103 -0.384c0.021 -0.199 0.058 -0.362 0.083 -0.362s0.061 -0.248 0.08 -0.55c0.02 -0.32 0.064 -0.56 0.105 -0.574 0.204 -0.068 0.27 -0.225 0.229 -0.54 -0.062 -0.465 -0.383 -0.693 -0.629 -0.446m78.517 9.527c0.033 0.13 0.078 0.158 0.259 0.158 0.226 0 0.473 0.156 0.473 0.298 0 0.044 0.071 0.081 0.158 0.081 0.137 0 0.158 0.028 0.158 0.214 0 0.132 0.036 0.228 0.095 0.251 0.156 0.06 0.131 0.801 -0.031 0.941 -0.07 0.059 -0.127 0.151 -0.127 0.203 0 0.053 -0.056 0.095 -0.125 0.095 -0.081 0 -0.139 0.056 -0.165 0.158 -0.032 0.13 -0.078 0.158 -0.253 0.158 -0.148 0 -0.214 0.029 -0.214 0.095 0 0.077 -0.102 0.095 -0.536 0.095s-0.537 0.018 -0.537 0.095c0 0.078 -0.109 0.095 -0.6 0.095s-0.6 -0.017 -0.6 -0.095c0 -0.077 -0.102 -0.095 -0.536 -0.095s-0.537 -0.018 -0.537 -0.095c0 -0.069 -0.07 -0.095 -0.253 -0.095 -0.14 0 -0.252 -0.031 -0.252 -0.069s-0.059 -0.116 -0.13 -0.174c-0.078 -0.064 -0.145 -0.212 -0.166 -0.373 -0.022 -0.167 -0.068 -0.267 -0.122 -0.267 -0.153 0 -0.118 -0.892 0.04 -1.027 0.069 -0.059 0.126 -0.151 0.126 -0.203 0 -0.067 0.066 -0.095 0.221 -0.095 0.155 0 0.221 -0.029 0.221 -0.095 0 -0.06 0.06 -0.095 0.162 -0.095 0.167 0 0.343 -0.128 0.343 -0.248 0 -0.046 0.459 -0.068 1.445 -0.068h1.445z" stroke="none" fill="#645cfc" fill-rule="evenodd" stroke-width="0.37875"/><path id="path1" d="M47.297 7.557c0.096 0.014 0.238 0.014 0.316 -0.001 0.078 -0.015 -0.001 -0.027 -0.175 -0.027s-0.237 0.013 -0.141 0.027m4.86 0.001c0.13 0.014 0.344 0.014 0.473 0 0.13 -0.014 0.024 -0.025 -0.237 -0.025s-0.367 0.011 -0.237 0.025m72.562 0.001c1.224 0.01 3.226 0.01 4.45 0s0.222 -0.017 -2.225 -0.017c-2.448 0 -3.449 0.008 -2.225 0.017m-73.572 9.595c1.067 0.009 2.814 0.009 3.882 0s0.194 -0.018 -1.941 -0.018 -3.009 0.008 -1.941 0.018m38.695 15.967c0.061 0.016 0.16 0.016 0.221 0s0.011 -0.029 -0.111 -0.029 -0.171 0.013 -0.111 0.029m1.515 0c0.061 0.016 0.16 0.016 0.221 0s0.011 -0.029 -0.111 -0.029 -0.171 0.013 -0.111 0.029m4.546 0.002c0.096 0.014 0.238 0.014 0.315 -0.001 0.078 -0.015 -0.001 -0.027 -0.175 -0.027 -0.173 0 -0.237 0.013 -0.141 0.027" stroke="none" fill="#685cfc" fill-rule="evenodd" stroke-width="0.37875"/><path id="path2" d="M47.297 7.557c0.096 0.014 0.238 0.014 0.316 -0.001 0.078 -0.015 -0.001 -0.027 -0.175 -0.027s-0.237 0.013 -0.141 0.027m4.86 0.001c0.13 0.014 0.344 0.014 0.473 0 0.13 -0.014 0.024 -0.025 -0.237 -0.025s-0.367 0.011 -0.237 0.025m72.562 0.001c1.224 0.01 3.226 0.01 4.45 0s0.222 -0.017 -2.225 -0.017c-2.448 0 -3.449 0.008 -2.225 0.017m-73.572 9.595c1.067 0.009 2.814 0.009 3.882 0s0.194 -0.018 -1.941 -0.018 -3.009 0.008 -1.941 0.018m38.695 15.967c0.061 0.016 0.16 0.016 0.221 0s0.011 -0.029 -0.111 -0.029 -0.171 0.013 -0.111 0.029m1.515 0c0.061 0.016 0.16 0.016 0.221 0s0.011 -0.029 -0.111 -0.029 -0.171 0.013 -0.111 0.029m4.546 0.002c0.096 0.014 0.238 0.014 0.315 -0.001 0.078 -0.015 -0.001 -0.027 -0.175 -0.027 -0.173 0 -0.237 0.013 -0.141 0.027" stroke="none" fill="#685cfc" fill-rule="evenodd" stroke-width="0.37875"/><path id="path3" d="M47.297 7.557c0.096 0.014 0.238 0.014 0.316 -0.001 0.078 -0.015 -0.001 -0.027 -0.175 -0.027s-0.237 0.013 -0.141 0.027m4.86 0.001c0.13 0.014 0.344 0.014 0.473 0 0.13 -0.014 0.024 -0.025 -0.237 -0.025s-0.367 0.011 -0.237 0.025m72.562 0.001c1.224 0.01 3.226 0.01 4.45 0s0.222 -0.017 -2.225 -0.017c-2.448 0 -3.449 0.008 -2.225 0.017m-73.572 9.595c1.067 0.009 2.814 0.009 3.882 0s0.194 -0.018 -1.941 -0.018 -3.009 0.008 -1.941 0.018m38.695 15.967c0.061 0.016 0.16 0.016 0.221 0s0.011 -0.029 -0.111 -0.029 -0.171 0.013 -0.111 0.029m1.515 0c0.061 0.016 0.16 0.016 0.221 0s0.011 -0.029 -0.111 -0.029 -0.171 0.013 -0.111 0.029m4.546 0.002c0.096 0.014 0.238 0.014 0.315 -0.001 0.078 -0.015 -0.001 -0.027 -0.175 -0.027 -0.173 0 -0.237 0.013 -0.141 0.027" stroke="none" fill="#685cfc" fill-rule="evenodd" stroke-width="0.37875"/><path id="path4" d="M47.297 7.557c0.096 0.014 0.238 0.014 0.316 -0.001 0.078 -0.015 -0.001 -0.027 -0.175 -0.027s-0.237 0.013 -0.141 0.027m4.86 0.001c0.13 0.014 0.344 0.014 0.473 0 0.13 -0.014 0.024 -0.025 -0.237 -0.025s-0.367 0.011 -0.237 0.025m72.562 0.001c1.224 0.01 3.226 0.01 4.45 0s0.222 -0.017 -2.225 -0.017c-2.448 0 -3.449 0.008 -2.225 0.017m-73.572 9.595c1.067 0.009 2.814 0.009 3.882 0s0.194 -0.018 -1.941 -0.018 -3.009 0.008 -1.941 0.018m38.695 15.967c0.061 0.016 0.16 0.016 0.221 0s0.011 -0.029 -0.111 -0.029 -0.171 0.013 -0.111 0.029m1.515 0c0.061 0.016 0.16 0.016 0.221 0s0.011 -0.029 -0.111 -0.029 -0.171 0.013 -0.111 0.029m4.546 0.002c0.096 0.014 0.238 0.014 0.315 -0.001 0.078 -0.015 -0.001 -0.027 -0.175 -0.027 -0.173 0 -0.237 0.013 -0.141 0.027" stroke="none" fill="#685cfc" fill-rule="evenodd" stroke-width="0.37875"/></g></svg>